<?xml version="1.0" encoding="utf-8"?>
<svg version="1.1" id="Layer_1" x="0px" y="0px" viewBox="0 0 512 512" style="enable-background:new 0 0 512 512;" xmlns="http://www.w3.org/2000/svg">
  <path style="" d="M 382.011 401.562 C 382.011 407.486 376.201 412.289 369.033 412.289 L 345.97 412.289 C 338.805 412.289 332.994 407.485 332.994 401.562 L 332.994 267.267 L 382.01 267.267 L 382.011 401.562 L 382.011 401.562 Z"/>
  <rect x="324.772" y="261.2" style="fill: rgb(126, 97, 66);" width="43.791" height="16.515"/>
  <path style="" d="M 167.456 402.863 C 167.456 408.787 161.646 413.59 154.478 413.59 L 131.416 413.59 C 124.25 413.59 118.439 408.786 118.439 402.863 L 118.439 268.568 L 167.455 268.568 L 167.456 402.863 L 167.456 402.863 Z"/>
  <g style="" transform="matrix(0.710212, 0, 0, 0.645473, 68.584213, 94.421127)">
    <path style="fill: rgb(169, 130, 90); stroke: rgb(186, 218, 85);" d="M118.439,495.675c0,9.016-7.309,16.325-16.325,16.325H73.101c-9.016,0-16.325-7.31-16.325-16.325 V291.27h61.663V495.675z"/>
    <path style="fill: rgb(169, 130, 90); stroke: rgb(186, 218, 85);" d="M455.224,495.675c0,9.016-7.309,16.325-16.325,16.325h-29.014c-9.016,0-16.325-7.31-16.325-16.325 V291.27h61.663L455.224,495.675L455.224,495.675z"/>
  </g>
  <rect x="108.907" y="282.432" style="fill: rgb(126, 97, 66);" width="43.791" height="16.515"/>
  <rect x="348.092" y="282.432" style="fill: rgb(126, 97, 66);" width="43.791" height="16.515"/>
  <path style="fill: none; stroke-width: 6px; stroke: rgb(4, 4, 4);" d="M 394.422 413.429 C 394.422 419.353 388.613 424.156 381.445 424.156 L 358.382 424.156 C 351.216 424.156 345.406 419.352 345.406 413.429 L 345.406 279.134 L 394.422 279.134 L 394.422 413.429 L 394.422 413.429 Z"/>
  <path style="stroke: rgb(0, 0, 0); stroke-width: 6px;" d="M 406.553 285 L 93.964 285 C 81.281 285 70.998 275.233 70.998 263.189 L 70.998 199.048 C 70.998 187.004 81.281 177.239 93.964 177.239 L 406.553 177.239 C 419.236 177.239 429.518 187.004 429.518 199.048 L 429.518 263.189 C 429.519 275.233 419.236 285 406.553 285 Z"/>
  <path style="fill: none; stroke-width: 6px; stroke: rgb(4, 4, 4);" d="M 155.923 413.429 C 155.923 419.353 150.114 424.156 142.946 424.156 L 119.883 424.156 C 112.717 424.156 106.907 419.352 106.907 413.429 L 106.907 279.134 L 155.923 279.134 L 155.923 413.429 L 155.923 413.429 Z"/>
  <path style="fill: rgb(255, 153, 0);" d="M 404.693 282.429 L 96.104 282.429 C 83.583 282.429 73.431 273.203 73.431 261.824 L 73.431 201.236 C 73.431 189.855 83.583 180.63 96.104 180.63 L 404.693 180.63 C 417.215 180.63 427.365 189.855 427.365 201.236 L 427.365 261.824 C 427.366 273.203 417.215 282.429 404.693 282.429 Z"/>
  <path style="fill: rgb(255, 220, 53);" d="M 404.693 180.629 L 96.104 180.629 C 83.583 180.629 73.431 189.855 73.431 201.235 L 73.431 240.2 C 73.431 251.582 83.583 260.806 96.104 260.806 L 404.693 260.806 C 417.215 260.806 427.365 251.58 427.365 240.2 L 427.365 201.235 C 427.366 189.855 417.215 180.629 404.693 180.629 Z"/>
  <g style="" transform="matrix(0.710212, 0, 0, 0.645473, 68.584213, 94.421127)">
    <path style="fill:#3E3E42;" d="M119.853,133.557L6.826,255.008v4.339c0,17.631,14.292,31.923,31.923,31.923h12.045L197.57,133.558 C197.57,133.558,119.853,133.558,119.853,133.557z"/>
    <polygon style="fill:#3E3E42;" points="284.65,133.557 137.874,291.27 215.591,291.27 362.367,133.557 &#9;"/>
    <path style="fill:#3E3E42;" d="M473.251,133.557h-23.803L302.673,291.27h77.717l123.922-133.156 C500.985,144.037,488.345,133.557,473.251,133.557z"/>
  </g>
</svg>