<?xml version="1.0" encoding="utf-8"?>
<svg class="icon" height="512" viewBox="0 0 1024 1024" version="1.1" xmlns="http://www.w3.org/2000/svg">
  <path d="M215.706 60.828c-34.488 0-61.546 38.454-61.546 38.454S128.636 60.828 92.6 60.828c-35.052 0-63.678 28.912-65.55 63.914-1.056 19.774 5.32 34.824 14.302 48.456 17.948 27.234 96.418 92.798 112.926 92.798 16.85 0 94.618-65.324 112.686-92.798 9-13.692 15.358-28.68 14.298-48.456-1.876-35.002-30.5-63.914-65.556-63.914" fill="#FF5E8A"/>
  <path d="M154.274 292.936c-7.106 0-21.886 0-73.096-42.37C58.744 232 30.588 205.822 18.86 188.024 10.06 174.672-1.454 153.43 0.152 123.31 2.832 73.168 43.44 33.894 92.6 33.894c26.134 0 47.286 12.854 61.868 25.652 14.76-12.744 35.948-25.652 61.24-25.652 49.158 0 89.77 39.274 92.45 89.412 1.614 30.046-9.892 51.31-18.684 64.69-11.828 17.984-39.836 44.146-62.108 62.632-50.956 42.308-65.908 42.308-73.092 42.308z m4.626-53.272z m-9.1-0.026zM92.6 87.768c-20.178 0-37.518 17.232-38.652 38.416-0.6 11.286 2.266 20.616 9.896 32.196 13.04 19.786 69.478 67.494 90.51 79.14 21.06-11.514 76.602-58.586 90.1-79.118 7.64-11.62 10.508-20.958 9.908-32.214-1.134-21.184-18.474-38.418-38.656-38.418-15.34 0-33.562 18.554-39.518 27.016a26.94 26.94 0 0 1-22.03 11.436l-0.366-0.002a26.934 26.934 0 0 1-22.076-12.038C127.116 107.42 109.86 87.768 92.6 87.768zM523.958 990.108c-1.748 0-3.502-0.186-5.25-0.536a27.056 27.056 0 0 1-5.038-1.536 28.45 28.45 0 0 1-4.66-2.478 27.1 27.1 0 0 1-4.094-3.34 26.98 26.98 0 0 1-3.34-4.094 28.78 28.78 0 0 1-2.478-4.66 26.518 26.518 0 0 1-2.046-10.29c0-1.776 0.162-3.528 0.51-5.28 0.35-1.724 0.862-3.422 1.536-5.034 0.674-1.618 1.508-3.182 2.478-4.66a27.1 27.1 0 0 1 3.34-4.094c6.276-6.25 15.568-9.108 24.322-7.354 1.726 0.35 3.424 0.862 5.038 1.536 1.618 0.674 3.182 1.508 4.66 2.478a28.776 28.776 0 0 1 4.094 3.34 26.98 26.98 0 0 1 3.34 4.094c0.97 1.482 1.804 3.044 2.478 4.66s1.186 3.31 1.536 5.034c0.35 1.75 0.51 3.504 0.51 5.28a26.64 26.64 0 0 1-2.046 10.29 28.614 28.614 0 0 1-2.478 4.66 27.1 27.1 0 0 1-3.34 4.094 27.148 27.148 0 0 1-19.072 7.89zM646.982 990.108c-1.748 0-3.528-0.186-5.25-0.536a27.056 27.056 0 0 1-5.038-1.536 26.554 26.554 0 0 1-4.66-2.478 25.78 25.78 0 0 1-4.094-3.34c-5.01-5.038-7.896-11.958-7.896-19.044 0-1.776 0.188-3.528 0.538-5.28 0.35-1.724 0.862-3.422 1.536-5.034 0.674-1.618 1.508-3.182 2.478-4.66a27.1 27.1 0 0 1 3.34-4.094c1.24-1.24 2.612-2.344 4.094-3.34a26.554 26.554 0 0 1 4.66-2.478 27.056 27.056 0 0 1 5.038-1.536c8.726-1.778 18.046 1.104 24.298 7.354 1.24 1.24 2.37 2.638 3.368 4.094 0.97 1.482 1.804 3.044 2.478 4.66 0.674 1.616 1.186 3.31 1.536 5.034 0.35 1.75 0.51 3.504 0.51 5.28 0 7.088-2.88 14.008-7.892 19.044a25.76 25.76 0 0 1-4.094 3.34c-1.454 0.97-3.018 1.804-4.636 2.478-1.64 0.674-3.338 1.186-5.038 1.536-1.744 0.35-3.498 0.536-5.276 0.536z" fill=""/>
  <path d="M997.066 537.958c-371.906 0-283.316-336.998-523.724-336.998-103.92 0-164.032 97.108-179.736 206.876l-54.816 35.512c-9.002 5.826-8.534 14.56 1.042 19.392l51.036 25.764c0.62 8.54 1.506 17.038 2.692 25.45 19.366 137.654 88.752 255.236 212.27 294.204 73.364 23.144 133.266 7.76 133.842 7.648 170.648-33.358 357.394-277.848 357.394-277.848z" style="fill: rgb(252, 254, 248);"/>
  <path d="M1021.21 526.016a26.94 26.94 0 0 0-24.146-14.996c-191.216 0-249.364-93.124-305.596-183.18-47.216-75.62-96.044-153.816-218.124-153.816-56.832 0-106.662 25.082-144.098 72.526-29.696 37.638-50.454 87.644-60.376 145.212l-44.722 28.974c-12.426 8.046-19.416 20.804-18.702 34.124 0.716 13.32 9.034 25.256 22.248 31.926l37.708 19.034c0.44 4.008 0.934 7.976 1.484 11.884 22.724 161.506 106.598 276.598 230.152 315.91v49.166c0 14.874 12.062 26.938 26.938 26.938s26.938-12.062 26.938-26.938v-37.3a305.188 305.188 0 0 0 38.2 2.422c11.852 0 22.272-0.706 30.94-1.64v36.524c0 14.874 12.062 26.938 26.938 26.938s26.938-12.062 26.938-26.938v-48.01c169.298-53.102 337.092-270.71 344.542-280.466a26.944 26.944 0 0 0 2.738-28.294z m-366.292 258.3a26.84 26.84 0 0 0-7.928-1.19 26.826 26.826 0 0 0-18.668 7.546c-12.524 2.346-45.608 6.796-87.082-1.272a26.816 26.816 0 0 0-23.036-5.638c-1.42-0.42-2.84-0.838-4.272-1.29-103.34-32.606-173.942-131.844-193.7-272.264a357.81 357.81 0 0 1-2.498-23.646 26.936 26.936 0 0 0-14.726-22.102l-26.56-13.41 31.806-20.604a26.924 26.924 0 0 0 12.02-18.794c12.71-88.832 59.594-183.752 153.07-183.752 92.204 0 127.606 56.696 172.428 128.474 52.894 84.714 117.574 188.316 296.204 205.918-56.5 65.136-175.154 188.818-287.058 222.024z" fill=""/>
  <path d="M755.844 552.328c-151.244 36.762-146.008-98.672-243.774-74.91-42.262 10.272-57.834 52.716-54.194 95.532 0 0 4.824 27.672 9.676 39.894 19.872 50.05 59.414 87.17 113.206 89.61 31.95 1.45 54.904-10.256 55.13-10.354 66.35-29.408 119.956-139.772 119.956-139.772z" fill="#BBDCE3"/>
  <path d="M586.214 729.514c-2.19 0-4.412-0.052-6.676-0.154-60.388-2.736-111.614-42.58-137.02-106.576-5.594-14.088-10.292-40.132-11.176-45.21a26.45 26.45 0 0 1-0.302-2.34c-5.36-62.994 23.95-111.662 74.668-123.988 57.484-13.97 90.372 15.956 116.802 40.006 30.61 27.85 57.038 51.896 126.978 34.906a26.94 26.94 0 0 1 30.59 37.944c-5.916 12.178-59.812 119.74-132.84 152.434-5.66 2.708-29.188 12.978-61.024 12.978z m-101.584-159.988c1.878 10.482 5.43 27.004 7.96 33.378 17.626 44.39 50.206 70.864 89.392 72.64 23.92 1.12 41.262-7.246 41.99-7.602 0.364-0.176 0.794-0.38 1.166-0.538 29.826-13.218 59.37-49.77 80.42-81.82-60.154-0.654-93.46-30.97-119.304-54.482-26.456-24.074-39.348-34.418-67.82-27.506-34.89 8.478-34.894 51.186-33.804 65.93zM445.492 406.67c-1.778 0-3.554-0.186-5.28-0.536a25.314 25.314 0 0 1-5.038-1.536 26.634 26.634 0 0 1-4.658-2.452 27.474 27.474 0 0 1-4.098-3.368 27.104 27.104 0 0 1-7.892-19.044c0-1.748 0.188-3.528 0.538-5.25a27.196 27.196 0 0 1 4.012-9.698c0.968-1.482 2.098-2.856 3.338-4.094s2.616-2.37 4.098-3.34a26.606 26.606 0 0 1 4.658-2.478 27.194 27.194 0 0 1 5.038-1.536c3.474-0.7 7.058-0.7 10.532 0 1.724 0.35 3.424 0.862 5.038 1.536 1.614 0.674 3.178 1.508 4.658 2.478a28.594 28.594 0 0 1 4.098 3.34c1.24 1.24 2.344 2.612 3.34 4.094 0.968 1.454 1.804 3.016 2.478 4.66 0.674 1.616 1.182 3.31 1.532 5.038a27.062 27.062 0 0 1-7.354 24.294c-1.266 1.24-2.64 2.37-4.098 3.368a28.62 28.62 0 0 1-4.658 2.452c-1.614 0.674-3.314 1.212-5.038 1.536a26.94 26.94 0 0 1-5.244 0.536z" fill=""/>
</svg>