<?xml version="1.0" encoding="utf-8"?>
<svg version="1.1" id="Layer_1" x="0px" y="0px" viewBox="0 0 512 512" style="enable-background:new 0 0 512 512;" xmlns="http://www.w3.org/2000/svg">
  <g style="" transform="matrix(0.780867, 0, 0, 0.783164, 48.978867, 54.940414)">
    <path style="fill:#FFFFFF;" d="M137.456,322.941c16.526,0,29.957,13.443,29.957,29.957c0,16.515-13.432,29.957-29.957,29.957 c-16.515,0-29.957-13.443-29.957-29.957C107.498,336.383,120.941,322.941,137.456,322.941z"/>
    <path style="fill:#FFFFFF;" d="M374.544,322.941c16.515,0,29.957,13.443,29.957,29.957c0,16.515-13.443,29.957-29.957,29.957 c-16.526,0-29.957-13.443-29.957-29.957C344.587,336.383,358.019,322.941,374.544,322.941z"/>
    <path style="fill:#FFFFFF;" d="M208.373,118.25v83.064H53.052l65.46-69.545c6.177-6.569,22.256-13.519,31.276-13.519H208.373z"/>
  </g>
  <path style="fill: rgb(197, 226, 226);" d="M 185.837 204.008 L 211.692 143.456 L 87.875 143.456 L 87.875 213.065 L 172.733 213.065 C 176.859 213.065 184.084 208.072 185.837 204.008 Z" transform="matrix(-1, 0, 0, -1, 299.567001, 356.520996)"/>
  <path style="fill: rgb(197, 226, 226);" d="M 310.613 156.013 L 337.323 212.602 L 209.412 212.602 L 209.412 147.549 L 297.076 147.549 C 301.338 147.549 308.802 152.215 310.613 156.013 Z"/>
  <path style="fill: rgb(255, 70, 38);" d="M 405.919 238.196 C 405.919 234.152 406.574 230.271 407.782 226.628 C 407.782 226.619 377.951 216.645 377.951 216.645 C 371.29 214.428 363.405 207.388 360.409 201.024 L 334.175 145.109 C 328.204 132.371 311.828 121.954 297.793 121.954 L 165.943 121.954 C 151.907 121.954 132.555 130.34 122.934 140.595 L 64.103 203.286 C 59.298 208.412 55.358 218.359 55.358 225.398 L 55.358 305.722 C 55.358 319.799 66.842 331.316 80.878 331.316 L 98.895 331.316 C 98.895 299.511 124.602 273.729 156.315 273.729 C 188.026 273.729 213.733 299.511 213.733 331.316 L 284.03 331.316 C 284.03 299.511 309.737 273.729 341.448 273.729 C 373.16 273.729 398.868 299.511 398.868 331.316 C 398.868 331.316 407.952 331.316 420.177 331.316 C 432.399 331.316 442.403 319.8 442.403 305.722 L 442.403 274.788 C 422.251 274.788 405.919 258.407 405.919 238.196 Z M 90.406 212.602 L 141.521 158.137 C 146.345 152.992 158.9 147.549 165.944 147.549 L 297.793 147.549 C 301.979 147.549 309.311 152.216 311.09 156.013 L 337.324 212.602 L 90.406 212.602 Z"/>
  <g style="" transform="matrix(0.780867, 0, 0, 0.783164, 48.978867, 54.940414)">
    <path style="fill: rgb(73, 73, 73);" d="M137.456,279.366c40.611,0,73.532,32.921,73.532,73.532s-32.921,73.532-73.532,73.532 s-73.532-32.921-73.532-73.532S96.844,279.366,137.456,279.366z M167.413,352.898c0-16.515-13.432-29.957-29.957-29.957 c-16.515,0-29.957,13.443-29.957,29.957c0,16.515,13.443,29.957,29.957,29.957C153.981,382.856,167.413,369.413,167.413,352.898z"/>
    <path style="fill: rgb(73, 73, 73);" d="M374.544,279.366c40.611,0,73.532,32.921,73.532,73.532s-32.921,73.532-73.532,73.532 s-73.532-32.921-73.532-73.532S333.933,279.366,374.544,279.366z M404.502,352.898c0-16.515-13.443-29.957-29.957-29.957 c-16.526,0-29.957,13.443-29.957,29.957c0,16.515,13.432,29.957,29.957,29.957C391.059,382.856,404.502,369.413,404.502,352.898z"/>
  </g>
  <path style="fill: rgb(238, 194, 120);" d="M 407.791 226.629 C 426.829 232.992 442.403 254.662 442.403 274.788 C 422.251 274.788 405.919 258.407 405.919 238.196 C 405.919 234.153 406.574 230.271 407.791 226.629 Z"/>
  <g style="" transform="matrix(0.780867, 0, 0, 0.783164, 48.978867, 54.940414)">
    <path style="" d="M137.46,391.027c21.024,0,38.128-17.104,38.128-38.128c0-21.024-17.104-38.128-38.128-38.128 s-38.128,17.104-38.128,38.128C99.332,373.923,116.436,391.027,137.46,391.027z M137.46,331.112 c12.013,0,21.787,9.774,21.787,21.787s-9.774,21.787-21.787,21.787s-21.787-9.774-21.787-21.787S125.445,331.112,137.46,331.112z"/>
    <path style="" d="M374.54,314.772c-21.024,0-38.128,17.104-38.128,38.128c0,21.024,17.104,38.128,38.128,38.128 c21.024,0,38.128-17.104,38.128-38.128C412.668,331.876,395.564,314.772,374.54,314.772z M374.54,374.686 c-12.013,0-21.787-9.774-21.787-21.787s9.774-21.787,21.787-21.787s21.787,9.774,21.787,21.787S386.555,374.686,374.54,374.686z"/>
    <path style="" d="M 149.787 126.419 L 211.312 126.216 C 215.825 126.216 209.915 122.355 209.915 117.843 C 209.915 113.331 212.772 110.079 208.259 110.079 L 149.787 110.079 C 138.433 110.079 120.34 117.896 112.556 126.166 L 47.098 195.716 C 44.864 198.09 44.256 201.564 45.548 204.556 C 46.841 207.548 49.789 209.485 53.048 209.485 L 369.258 209.485 C 372.049 209.485 374.645 208.061 376.146 205.708 C 377.646 203.356 377.843 200.4 376.667 197.87 L 343.056 125.575 C 339.445 117.899 327.121 110.079 318.638 110.079 L 208.372 110.079 C 203.859 110.079 200.202 113.737 200.202 118.249 L 200.201 193.145 L 71.959 193.145 L 124.455 137.365 C 129.077 132.454 143.046 126.419 149.787 126.419 Z M 216.542 126.419 L 318.615 126.419 C 321.015 126.531 327.158 130.429 328.255 132.499 L 356.451 193.145 L 216.541 193.145 L 216.542 126.419 Z"/>
    <path style="" d="M 512 280.719 C 512 251.708 489.608 220.642 462.087 211.468 C 462.068 211.461 423.874 198.73 423.874 198.73 C 417.497 196.605 409.085 189.131 406.223 183.05 L 372.627 111.659 C 363.586 92.447 339.872 77.397 318.638 77.397 L 149.787 77.397 C 129.482 77.397 102.675 88.979 88.759 103.766 L 13.421 183.814 C 5.895 191.811 0 206.674 0 217.655 L 0 320.218 C 0 342.744 18.325 361.069 40.851 361.069 L 56.167 361.069 C 60.279 402.297 95.166 434.601 137.46 434.601 C 179.754 434.601 214.64 402.297 218.753 361.069 L 296.418 361.272 C 300.931 361.272 296.04 357.208 296.04 352.696 C 296.04 348.184 299.914 345.947 295.401 345.947 L 218.753 344.729 C 214.641 303.501 179.754 271.197 137.46 271.197 C 95.166 271.197 60.28 303.501 56.167 344.729 L 40.851 344.729 C 27.336 344.729 16.34 333.734 16.34 320.218 L 16.34 217.655 C 16.34 210.799 20.62 200.007 25.319 195.015 L 100.658 114.965 C 111.487 103.458 133.986 93.738 149.787 93.738 L 318.638 93.738 C 333.543 93.738 351.495 105.131 357.841 118.617 L 391.437 190.008 C 396.253 200.243 407.976 210.657 418.705 214.233 L 449.75 224.581 C 449.214 227.676 448.935 230.822 448.935 233.995 C 448.935 261.488 469.252 284.321 495.66 288.279 L 495.66 320.219 C 495.66 333.735 486.556 344.73 475.364 344.73 L 455.833 344.73 C 451.721 303.502 416.834 271.198 374.54 271.198 C 329.489 271.198 292.838 307.85 292.838 352.9 C 292.838 397.95 329.49 434.602 374.54 434.602 C 416.833 434.602 451.72 402.298 455.833 361.07 L 475.364 361.07 C 495.565 361.07 512 342.745 512 320.219 L 512 280.719 Z M 137.46 287.538 C 173.5 287.538 202.822 316.859 202.822 352.9 C 202.822 388.941 173.501 418.262 137.46 418.262 C 101.419 418.262 72.098 388.941 72.098 352.9 C 72.098 316.859 101.42 287.538 137.46 287.538 Z M 374.54 418.261 C 338.5 418.261 309.178 388.94 309.178 352.899 C 309.178 316.858 338.499 287.537 374.54 287.537 C 410.581 287.537 439.902 316.858 439.902 352.899 C 439.902 388.94 410.58 418.261 374.54 418.261 Z M 465.275 233.995 C 465.275 232.939 465.319 231.888 465.402 230.843 C 479.738 239.152 491.315 255.212 494.667 271.439 C 477.819 267.317 465.275 252.097 465.275 233.995 Z"/>
  </g>
  <g/>
  <g/>
  <g/>
  <g/>
  <g/>
  <g/>
  <g/>
  <g/>
  <g/>
  <g/>
  <g/>
  <g/>
  <g/>
  <g/>
  <g/>
</svg>