<?xml version="1.0" encoding="utf-8"?>
<svg class="icon" height="512" viewBox="0 0 1024 1024" version="1.1" xmlns="http://www.w3.org/2000/svg">
  <defs>
    <radialGradient gradientUnits="userSpaceOnUse" cx="765.769" cy="278" r="91.515" id="gradient-0" gradientTransform="matrix(0.1749, -1.443014, 0.607311, 0.073609, 463.002863, 1362.552027)">
      <stop offset="0" style="stop-color: rgba(149, 129, 118, 1)"/>
      <stop offset="1" style="stop-color: rgb(182, 144, 116);"/>
    </radialGradient>
    <radialGradient gradientUnits="userSpaceOnUse" cx="256.95" cy="278" r="91.496" id="gradient-1" gradientTransform="matrix(-0.235373, -1.614547, 0.98954, -0.144258, 42.33696, 732.961537)">
      <stop offset="0" style="stop-color: rgba(149, 129, 118, 1)"/>
      <stop offset="1" style="stop-color: rgb(208, 169, 149);"/>
    </radialGradient>
  </defs>
  <path d="M169.8 332.8c6.9 43.9 46.8 79.2 74.3 106.3 52.1-45.2 123.9-105.4 99.4-191-12.3-42.8-84-104-111.6-131.2-52.1 45.3-77.2 119.3-62.1 215.9z" style="fill: url(#gradient-1);"/>
  <path d="M 248.677 442.485 C 246.177 442.485 243.577 441.485 241.677 439.585 C 239.177 437.185 236.677 434.685 233.977 432.085 C 205.977 404.885 171.277 370.985 164.477 327.685 C 156.877 279.185 158.877 234.885 170.577 196.085 C 181.877 158.485 201.877 127.085 229.877 102.785 C 233.777 99.385 239.777 99.585 243.477 103.185 C 248.077 107.685 253.777 113.085 260.477 119.385 C 294.777 151.685 346.677 200.485 357.577 238.685 C 383.477 328.885 310.877 391.685 257.977 437.585 L 255.177 439.985 C 253.277 441.585 250.977 442.485 248.677 442.485 L 248.677 442.485 Z M 236.277 123.985 C 214.677 144.885 198.977 170.985 189.677 201.785 C 178.877 237.685 176.977 278.985 184.177 324.485 C 189.977 361.185 222.077 392.485 247.877 417.685 C 248.277 418.085 248.677 418.385 248.977 418.785 C 299.777 374.685 360.077 319.985 338.377 244.085 C 328.977 211.185 277.477 162.785 246.777 133.885 C 242.977 130.385 239.477 127.085 236.277 123.985 L 236.277 123.985 Z" fill="#231815"/>
  <path d="M852.9 332.8c-6.9 43.9-46.8 79.2-74.3 106.3-52.1-45.2-123.9-105.4-99.4-191 12.3-42.8 84-104 111.6-131.2 52.1 45.3 77.3 119.3 62.1 215.9z" style="paint-order: fill; fill: url(#gradient-0);"/>
  <path d="M778.6 449.2c-2.3 0-4.7-0.8-6.5-2.4l-2.8-2.4c-53-45.9-125.5-108.7-99.6-198.9 11-38.2 62.8-87 97.1-119.3 6.7-6.3 12.5-11.7 17-16.2 3.7-3.7 9.6-3.9 13.6-0.4 28 24.3 48 55.7 59.3 93.3 11.7 38.8 13.8 83.1 6.1 131.6-6.8 43.3-41.6 77.2-69.5 104.4-2.6 2.6-5.2 5.1-7.7 7.5-1.9 1.8-4.5 2.8-7 2.8zM791 130.7c-3.2 3-6.7 6.4-10.5 10-30.7 28.9-82.2 77.3-91.6 110.2-21.7 75.8 38.5 130.6 89.4 174.7 0.4-0.4 0.8-0.7 1.1-1.1 25.8-25.2 58-56.5 63.7-93.2 7.2-45.5 5.3-86.8-5.5-122.7-9.4-30.9-25-57-46.6-77.9z" fill="#231815"/>
  <path d="M 896.1 562.239 C 896.1 763.908 723.9 890.2 511.4 890.2 C 298.9 890.2 126.7 763.908 126.7 562.239 C 126.7 360.571 298.9 209.419 511.4 209.419 C 723.9 209.419 896.1 360.571 896.1 562.239 Z" style="fill: rgb(138, 120, 85);"/>
  <path d="M 511.4 890.7 C 405.072 890.7 308.728 859.019 239.046 802.087 C 169.358 745.15 126.2 662.816 126.2 561.7 C 126.2 460.59 169.345 372.042 239.027 308.88 C 308.705 245.72 405.058 207.8 511.4 207.8 C 617.742 207.8 714.095 245.72 783.773 308.88 C 853.455 372.042 896.6 460.59 896.6 561.7 C 896.6 662.816 853.442 745.15 783.754 802.087 C 714.072 859.019 617.728 890.7 511.4 890.7 Z M 783.121 801.313 C 852.658 744.5 895.6 662.584 895.6 561.7 C 895.6 460.81 852.645 372.658 783.102 309.62 C 713.555 246.58 617.558 208.8 511.4 208.8 C 405.242 208.8 309.245 246.58 239.698 309.62 C 170.155 372.658 127.2 460.81 127.2 561.7 C 127.2 662.584 170.142 744.5 239.679 801.313 C 309.222 858.131 405.228 889.7 511.4 889.7 C 617.572 889.7 713.578 858.131 783.121 801.313 Z" style="fill: none;"/>
  <path d="M511.4 900.3c-107.9 0-206.7-32.2-278.3-90.8-36.7-30-65.3-65.9-85.1-106.9-20.7-42.9-31.2-90.3-31.2-140.9 0-99.8 41.2-192.1 116-259.8 73.7-66.8 172.6-103.5 278.7-103.5s205.1 36.8 278.7 103.5c74.8 67.8 116 160 116 259.8 0 50.6-10.5 98-31.2 140.9-19.8 40.9-48.4 76.9-85.1 106.9-71.8 58.5-170.7 90.8-278.5 90.8z m0-681.9c-101.1 0-195.3 34.9-265.3 98.3-70.5 63.9-109.4 150.9-109.4 245 0 47.6 9.8 92.1 29.2 132.2 18.5 38.3 45.3 71.9 79.8 100.1 68.1 55.6 162.4 86.3 265.7 86.3S709 849.6 777.1 794c34.4-28.1 61.3-61.8 79.8-100.1 19.4-40.1 29.2-84.6 29.2-132.2 0-94.1-38.8-181.1-109.4-245-70-63.4-164.2-98.3-265.3-98.3z" fill="" style=""/>
  <path d="M 232.784 809.887 C 196.046 779.849 167.379 743.864 147.55 702.817 C 126.831 659.863 116.3 612.354 116.3 561.7 C 116.3 461.798 157.604 369.313 232.464 301.53 C 306.245 234.68 405.313 197.9 511.5 197.9 C 617.687 197.9 716.855 234.78 790.536 301.53 C 865.396 369.413 906.7 461.798 906.7 561.7 C 906.7 612.354 896.169 659.863 875.45 702.818 C 855.621 743.764 826.953 779.85 790.216 809.888 C 718.336 868.431 619.278 900.8 511.4 900.8 C 403.423 900.8 304.464 868.531 232.784 809.887 Z M 511.4 899.8 C 619.122 899.8 717.864 867.569 789.584 809.113 C 826.246 779.151 854.779 743.236 874.55 702.382 C 895.231 659.537 905.7 612.246 905.7 561.7 C 905.7 462.002 864.604 369.987 789.864 302.27 C 716.345 235.62 617.513 198.9 511.5 198.9 C 405.487 198.9 306.755 235.52 233.136 302.27 C 158.396 369.887 117.3 462.002 117.3 561.7 C 117.3 612.246 127.769 659.537 148.45 702.383 C 168.221 743.336 196.754 779.151 233.416 809.113 C 304.936 867.669 403.577 899.8 511.4 899.8 Z M 511.4 217.9 C 612.587 217.9 706.955 252.88 777.036 316.329 C 847.696 380.313 886.6 467.498 886.6 561.7 C 886.6 609.354 876.769 653.962 857.35 694.117 C 838.821 732.465 811.853 766.25 777.416 794.387 C 709.236 850.031 614.777 880.8 511.4 880.8 C 408.023 880.8 313.564 850.031 245.384 794.387 C 210.846 766.149 183.98 732.465 165.45 694.118 C 146.031 653.963 136.2 609.354 136.2 561.7 C 136.2 467.498 175.204 380.313 245.764 316.329 C 315.845 252.88 410.213 217.9 511.4 217.9 Z M 246.436 317.071 C 175.996 380.887 137.2 467.702 137.2 561.7 C 137.2 609.246 146.969 653.637 166.35 693.682 C 184.82 731.935 211.554 765.451 246.016 793.613 C 314.036 849.169 408.177 879.8 511.4 879.8 C 614.623 879.8 708.764 849.169 776.784 793.613 C 811.146 765.55 837.979 731.935 856.45 693.683 C 875.831 653.638 885.6 609.246 885.6 561.7 C 885.6 467.702 846.904 380.887 776.364 317.071 C 706.445 253.72 612.413 218.9 511.4 218.9 C 410.387 218.9 316.355 253.72 246.436 317.071 Z" style="fill: none;"/>
  <path d="M367.7 426m-45.5 0a45.5 45.5 0 1 0 91 0 45.5 45.5 0 1 0-91 0Z" fill="#231815"/>
  <path d="M 335.315 414.9 C 335.315 427.756 349.898 435.791 361.565 429.363 C 366.979 426.38 370.315 420.866 370.315 414.9 C 370.315 402.044 355.731 394.01 344.065 400.438 C 338.65 403.421 335.315 408.934 335.315 414.9 Z" fill="#FFFFFF"/>
  <path d="M655 426m-45.5 0a45.5 45.5 0 1 0 91 0 45.5 45.5 0 1 0-91 0Z" fill="#231815"/>
  <path d="M 623.734 416.019 C 623.734 428.875 638.318 436.91 649.984 430.482 C 655.399 427.499 658.734 421.986 658.734 416.019 C 658.734 403.164 644.151 395.129 632.484 401.557 C 627.07 404.54 623.734 410.053 623.734 416.019 Z" fill="#FFFFFF"/>
  <path d="M455.6 637.9a55.8 43.9 0 1 0 111.6 0 55.8 43.9 0 1 0-111.6 0Z" fill=""/>
  <path d="M562.9 805c-15.8 0-30.6-4.6-41.8-13.1-12.7-9.6-19.7-23.5-19.7-39.1 0-5.5 4.5-10 10-10s10 4.5 10 10c0 21.1 20.9 32.1 41.5 32.1 21.2 0 38.4-17.2 38.4-38.4 0-5.5 4.5-10 10-10s10 4.5 10 10c0 32.3-26.2 58.5-58.4 58.5z" fill=""/>
  <path d="M459.9 805c-32.2 0-58.4-26.2-58.4-58.4 0-5.5 4.5-10 10-10s10 4.5 10 10c0 21.2 17.2 38.4 38.4 38.4 20.6 0 41.5-11 41.5-32.1v-91.7c0-5.5 4.5-10 10-10s10 4.5 10 10v91.7c0 15.6-7 29.5-19.7 39.1-11.2 8.3-26 13-41.8 13z" fill=""/>
  <path d="M10.9 661.1c-1.8 0-3.6-1-4.5-2.7-1.3-2.5-0.3-5.5 2.2-6.7 57.5-29.5 124.8-41.5 171.2-46.5 50.2-5.4 87.4-3.8 87.8-3.8 2.8 0.1 4.9 2.5 4.8 5.2s-2.5 4.9-5.2 4.8c-1.5-0.1-146.5-5.9-253.9 49.2-0.9 0.3-1.6 0.5-2.4 0.5zM10.9 768.7c-1.3 0-2.7-0.5-3.6-1.6-1.9-2-1.8-5.2 0.2-7.1 57.6-54.3 125.3-76.7 171.9-85.8 50.5-9.9 86.9-7.1 88.4-6.9 2.8 0.2 4.8 2.6 4.6 5.4-0.2 2.8-2.6 4.8-5.4 4.6-0.5 0-36.9-2.9-86 6.8-45.2 8.9-110.8 30.6-166.7 83.2-0.9 0.9-2.2 1.4-3.4 1.4zM81.2 829.1c-1.1 0-2.2-0.4-3.2-1.1-2.1-1.8-2.4-4.9-0.7-7 42.1-51.3 91.5-72.5 125.6-81.1 37-9.4 63.8-6.7 64.9-6.6 2.7 0.3 4.7 2.8 4.4 5.5-0.3 2.7-2.8 4.7-5.5 4.4-0.4 0-26.5-2.6-61.8 6.4-32.5 8.3-79.7 28.6-119.9 77.7-0.9 1.1-2.4 1.8-3.8 1.8z" fill=""/>
  <path d="M1011.9 661.1c-0.8 0-1.5-0.2-2.3-0.6-107.4-55.1-252.5-49.2-253.9-49.2h-0.2c-2.7 0-4.9-2.1-5-4.8-0.1-2.8 2-5.1 4.8-5.2 0.4 0 37.6-1.6 87.8 3.8 46.4 5 113.7 17.1 171.2 46.5 2.5 1.3 3.4 4.3 2.2 6.7-1.1 1.8-2.8 2.8-4.6 2.8zM1011.9 768.7c-1.2 0-2.5-0.5-3.4-1.4-55.9-52.6-121.5-74.3-166.7-83.2-49.2-9.7-85.6-6.9-86-6.8-2.8 0.2-5.2-1.8-5.4-4.6-0.2-2.8 1.8-5.2 4.6-5.4 1.5-0.1 37.9-3 88.4 6.9 46.6 9.2 114.3 31.5 171.9 85.8 2 1.9 2.1 5.1 0.2 7.1-1 1.1-2.3 1.6-3.6 1.6zM941.6 829.1c-1.4 0-2.9-0.6-3.9-1.8-40.2-49.1-87.4-69.3-119.9-77.7-35.4-9.1-61.5-6.5-61.8-6.4-2.8 0.3-5.2-1.7-5.5-4.4-0.3-2.7 1.7-5.2 4.4-5.5 1.1-0.1 27.9-2.9 64.9 6.6 34.1 8.7 83.5 29.8 125.6 81.1 1.8 2.1 1.4 5.3-0.7 7-0.9 0.7-2 1.1-3.1 1.1z" fill=""/>
</svg>