<?xml version="1.0" encoding="utf-8"?>
<svg class="icon" height="512" viewBox="0 0 1055 1024" version="1.1" xmlns="http://www.w3.org/2000/svg">
  <path d="M1046.416992 391.810039a298.29476 298.29476 0 0 0-103.107905-144.351067 277.006312 277.006312 0 0 0-144.351067-41.037972 197.187456 197.187456 0 0 0-67.045787-128.91053c-41.037972-41.037972-97.978159-72.175534-159.842901-77.356578h-30.778479A282.649033 282.649033 0 0 0 376.01042 72.175534a242.124036 242.124036 0 0 0-72.175534 154.661857 216.988278 216.988278 0 0 0-170.153692 25.648733C82.024647 278.391344 35.856928 324.81555 15.337942 381.499249c-5.129747 10.259493-5.129747 25.648733-10.259493 35.908225-10.259493 61.864743-5.129747 118.59974 25.648733 170.153692 20.518986 46.167719 56.734996 82.486324 103.107905 108.288949-15.38924 46.167719-15.38924 97.978159-5.129747 144.351067 20.518986 56.734996 51.553953 108.288949 103.107905 139.221321l5.129747 5.129746c51.553953 30.778479 108.288949 46.167719 164.972648 35.908226a244.329827 244.329827 0 0 0 139.22132-61.864743c35.908226 35.908226 87.667368 51.553953 134.040277 56.734996a251.870554 251.870554 0 0 0 170.153692-46.167718 282.495141 282.495141 0 0 0 97.772968-149.378219c10.259493-46.167719 5.129747-97.978159-10.259493-144.351067a262.796914 262.796914 0 0 0 97.978159-113.418695 241.970143 241.970143 0 0 0 15.594429-170.20499z m-382.217413 246.227833a180.054103 180.054103 0 0 1-123.729486 51.553952 170.769262 170.769262 0 0 1-123.729486-51.553952 164.664863 164.664863 0 0 1-56.888889-123.472999c0-51.553953 20.518986-97.978159 56.734997-128.91053a170.769262 170.769262 0 0 1 123.729486-51.553952 180.054103 180.054103 0 0 1 123.729486 51.553952s54.529205 53.657149 51.553952 128.91053c-1.846709 46.372909-20.621581 92.797115-51.553952 123.729486z" style="fill: rgb(144, 190, 95);"/>
</svg>