<?xml version="1.0" encoding="utf-8"?>
<svg version="1.1" x="0px" y="0px" viewBox="0 0 470 470" style="enable-background:new 0 0 470 470;" xmlns="http://www.w3.org/2000/svg">
  <g>
    <path style="fill: rgb(157, 149, 136);" d="M 357.464 369.333 L 262.823 369.333 C 259.728 369.333 257.218 366.627 257.216 363.288 L 246 363.288 L 246 405.622 L 357.464 405.622 L 357.464 369.333 Z"/>
    <path style="fill: rgb(157, 149, 136);" d="M 257.216 199.939 C 257.216 196.598 259.726 193.892 262.823 193.892 L 357.464 193.892 L 357.464 157.602 L 246 157.602 L 246 199.94 C 246 199.94 257.216 199.94 257.216 199.939 Z"/>
    <polygon style="fill: rgb(157, 149, 136);" points="252.819 145.503 350.645 145.503 301.733 85.715"/>
    <path style="fill: rgb(245, 239, 223);" d="M 177.628 70.523 C 180.725 70.523 183.235 73.231 183.237 76.57 L 194.453 76.57 C 194.454 73.231 196.964 70.523 200.059 70.523 L 296.124 70.523 L 296.124 50.783 L 160.806 50.783 L 160.806 70.523 L 177.628 70.523 Z"/>
    <path style="fill: rgb(255, 255, 255);" d="M 183.237 76.573 C 183.237 79.915 180.726 82.621 177.628 82.621 L 157.727 82.621 L 106.285 145.504 L 237.862 145.504 L 289.306 82.621 L 200.059 82.621 C 196.963 82.621 194.453 79.915 194.453 76.573 C 194.453 76.57 183.237 76.57 183.237 76.573 Z"/>
    <rect x="99.467" y="369.333" style="fill: rgb(245, 239, 223);" width="135.318" height="36.289"/>
    <rect x="99.467" y="157.602" style="fill: rgb(245, 239, 223);" width="135.318" height="36.289"/>
    <rect x="95.363" y="202.275" width="144.242" height="160.213" style="fill: rgb(255, 218, 218);"/>
    <rect x="240.584" y="201.852" width="122.352" height="160.213" style="fill: rgb(201, 169, 169);"/>
    <path style="fill: rgb(12, 34, 54);" d="M 368.653 150.972 C 368.646 150.887 368.631 150.807 368.622 150.724 C 368.608 150.618 368.594 150.511 368.577 150.407 C 368.559 150.308 368.536 150.21 368.514 150.115 C 368.494 150.027 368.475 149.944 368.454 149.859 C 368.425 149.758 368.395 149.658 368.363 149.557 C 368.336 149.48 368.311 149.403 368.282 149.325 C 368.247 149.227 368.208 149.131 368.166 149.035 C 368.135 148.959 368.102 148.884 368.067 148.808 C 368.023 148.718 367.978 148.628 367.932 148.541 C 367.891 148.463 367.847 148.385 367.803 148.313 C 367.755 148.229 367.707 148.15 367.655 148.072 C 367.605 147.994 367.551 147.918 367.497 147.843 C 367.445 147.771 367.392 147.698 367.337 147.629 C 367.316 147.602 367.298 147.575 367.278 147.551 L 307.339 74.286 L 307.339 44.737 C 307.339 41.395 304.83 38.688 301.733 38.688 L 155.198 38.688 C 152.101 38.688 149.591 41.395 149.591 44.737 L 149.591 74.286 L 89.652 147.551 C 89.633 147.574 89.616 147.601 89.596 147.626 C 89.539 147.698 89.485 147.773 89.431 147.848 C 89.38 147.92 89.327 147.994 89.279 148.067 C 89.225 148.15 89.176 148.233 89.125 148.317 C 89.083 148.388 89.041 148.461 89.001 148.539 C 88.952 148.627 88.907 148.719 88.863 148.812 C 88.828 148.886 88.797 148.959 88.764 149.031 C 88.724 149.129 88.684 149.227 88.648 149.326 C 88.62 149.403 88.595 149.479 88.569 149.555 C 88.537 149.656 88.505 149.756 88.477 149.861 C 88.456 149.944 88.435 150.026 88.416 150.111 C 88.396 150.209 88.372 150.308 88.354 150.408 C 88.336 150.511 88.324 150.617 88.309 150.724 C 88.299 150.806 88.286 150.887 88.279 150.972 C 88.261 151.164 88.252 151.358 88.252 151.551 L 88.252 411.671 C 88.252 415.012 90.762 417.72 93.859 417.72 L 363.074 417.72 C 366.171 417.72 368.681 415.012 368.681 411.671 L 368.681 151.551 C 368.68 151.358 368.67 151.164 368.653 150.972 Z M 234.784 157.602 L 234.784 193.892 L 99.467 193.892 L 99.467 157.602 L 234.784 157.602 Z M 234.784 357.236 L 99.467 357.236 L 99.467 205.987 L 234.784 205.987 L 234.784 357.236 Z M 252.819 145.503 L 301.733 85.715 L 350.645 145.503 L 252.819 145.503 Z M 296.124 50.783 L 296.124 70.523 L 158.625 70.946 C 155.529 70.946 167.481 74.074 167.48 77.414 C 167.48 80.758 162.563 81.778 165.661 81.778 L 289.306 82.621 L 237.862 145.504 L 106.285 145.504 L 157.727 82.621 L 294.899 82.2 C 297.996 82.2 234.445 76.119 234.445 72.779 C 234.443 69.435 180.725 70.523 177.628 70.523 L 160.806 70.523 L 160.806 50.783 L 296.124 50.783 Z M 99.467 369.333 L 234.784 369.333 L 234.784 405.622 L 99.467 405.622 L 99.467 369.333 Z M 246 157.602 L 357.464 157.602 L 357.464 193.892 L 242.497 193.046 C 239.399 193.046 240.798 197.018 240.798 200.361 C 240.798 203.701 240.181 205.566 243.279 205.566 L 357.464 205.987 L 357.464 357.236 L 244.06 357.236 C 240.962 357.236 240.798 360.366 240.798 363.705 C 240.799 367.047 241.746 369.333 244.843 369.333 L 357.464 369.333 L 357.464 405.622 L 246 405.622 L 246 157.602 Z"/>
    <path d="M 129.109 298.241 L 117.774 298.241 L 117.774 295.151 L 121.294 294.451 L 121.294 266.268 L 117.774 265.586 L 117.774 262.457 L 121.294 262.457 L 127.001 262.457 L 137.16 289.615 L 137.288 289.615 L 147.132 262.457 L 156.643 262.457 L 156.643 265.586 L 153.107 266.268 L 153.107 294.451 L 156.643 295.151 L 156.643 298.241 L 145.308 298.241 L 145.308 295.151 L 149.033 294.451 L 149.033 284.079 L 149.033 269.073 L 148.938 269.054 L 138.683 296.967 L 135.846 296.967 L 125.239 269.108 L 125.13 269.125 L 125.287 284.079 L 125.287 294.451 L 129.109 295.151 L 129.109 298.241 Z M 171.476 298.241 L 160.142 298.241 L 160.142 295.151 L 163.662 294.451 L 163.662 275.471 L 160.142 274.769 L 160.142 271.661 L 167.941 271.661 L 167.941 294.451 L 171.476 295.151 L 171.476 298.241 Z M 167.941 265.099 L 163.455 265.099 L 163.455 259.904 L 167.941 259.904 L 167.941 265.099 Z M 185.544 298.241 L 174.208 298.241 L 174.208 295.151 L 177.728 294.451 L 177.728 263.715 L 174.208 263.033 L 174.208 259.904 L 182.007 259.904 L 182.007 294.451 L 185.544 295.151 L 185.544 298.241 Z M 199.692 298.241 L 188.36 298.241 L 188.36 295.151 L 191.878 294.451 L 191.878 263.715 L 188.36 263.033 L 188.36 259.904 L 196.159 259.904 L 196.159 294.451 L 199.692 295.151 L 199.692 298.241 Z M 214.006 298.241 L 203.418 298.241 L 203.418 295.151 L 205.796 294.828 L 205.733 294.72 L 198.948 284.799 L 201.167 280.934 L 210.63 294.557 L 214.006 295.151 L 214.006 298.241 Z M 209.14 275.417 L 195.857 290.551 L 194.273 286.741 L 204.448 275.237 L 204.559 275.093 L 202.056 274.769 L 202.056 271.661 L 212.153 271.661 L 212.153 274.769 L 209.14 275.417 Z" style="fill: rgb(51, 51, 51); white-space: pre;"/>
    <path d="M 271.391 297.718 L 262.728 297.718 L 262.728 294.627 L 265.418 293.926 L 265.418 265.744 L 262.728 265.061 L 262.728 261.932 L 265.418 261.932 L 269.781 261.932 L 277.548 289.091 L 277.645 289.091 L 285.17 261.932 L 292.439 261.932 L 292.439 265.061 L 289.738 265.744 L 289.738 293.926 L 292.439 294.627 L 292.439 297.718 L 283.776 297.718 L 283.776 294.627 L 286.623 293.926 L 286.623 283.555 L 286.623 268.546 L 286.551 268.532 L 278.711 296.443 L 276.541 296.443 L 268.435 268.583 L 268.35 268.602 L 268.472 283.555 L 268.472 293.926 L 271.391 294.627 L 271.391 297.718 Z M 303.778 297.718 L 295.115 297.718 L 295.115 294.627 L 297.805 293.926 L 297.805 274.947 L 295.115 274.245 L 295.115 271.136 L 301.077 271.136 L 301.077 293.926 L 303.778 294.627 L 303.778 297.718 Z M 301.077 264.575 L 297.646 264.575 L 297.646 259.382 L 301.077 259.382 L 301.077 264.575 Z M 314.531 297.718 L 305.867 297.718 L 305.867 294.627 L 308.558 293.926 L 308.558 263.192 L 305.867 262.508 L 305.867 259.382 L 311.829 259.382 L 311.829 293.926 L 314.531 294.627 L 314.531 297.718 Z M 325.348 297.718 L 316.684 297.718 L 316.684 294.627 L 319.374 293.926 L 319.374 263.192 L 316.684 262.508 L 316.684 259.382 L 322.644 259.382 L 322.644 293.926 L 325.348 294.627 L 325.348 297.718 Z M 336.289 297.718 L 328.195 297.718 L 328.195 294.627 L 330.013 294.305 L 329.964 294.194 L 324.778 284.275 L 326.475 280.409 L 333.709 294.034 L 336.289 294.627 L 336.289 297.718 Z M 332.569 274.892 L 322.416 290.024 L 321.203 286.215 L 328.981 274.712 L 329.066 274.568 L 327.153 274.245 L 327.153 271.136 L 334.871 271.136 L 334.871 274.245 L 332.569 274.892 Z" style="fill: rgb(51, 51, 51); white-space: pre;"/>
  </g>
</svg>