<?xml version="1.0" encoding="utf-8"?>
<svg version="1.1" id="Layer_1" x="0px" y="0px" viewBox="0 0 512.002 512.002" style="enable-background:new 0 0 512.002 512.002;" xmlns="http://www.w3.org/2000/svg">
  <path style="fill: rgb(255, 202, 200);" d="M 359.578 277.748 C 372.327 277.748 382.661 288.853 382.661 302.554 C 382.661 316.255 372.327 327.36 359.578 327.36 L 345.88 327.36 L 345.88 277.749 L 359.578 277.749 L 359.578 277.748 Z"/>
  <path style="fill: rgb(249, 227, 226);" d="M 345.88 277.748 L 345.88 327.36 L 337.261 327.36 C 321.697 327.36 307.386 321.488 296.142 311.702 L 296.161 311.681 L 326.308 274.072 C 329.419 276.389 333.195 277.748 337.261 277.748 L 345.88 277.748 L 345.88 277.748 Z"/>
  <path style="fill: rgb(255, 202, 200);" d="M 326.307 274.072 L 296.161 311.681 L 296.142 311.702 C 284.107 301.236 275.582 286.284 272.8 269.233 L 272.844 269.226 L 317.378 247.553 C 317.77 250.652 317.972 253.812 317.972 257.02 C 317.972 264.081 321.273 270.327 326.307 274.072 Z"/>
  <path style="fill: rgb(249, 227, 226);" d="M 317.378 247.553 L 272.844 269.226 L 272.8 269.233 C 272.148 265.264 271.807 261.187 271.807 257.021 C 271.807 251.475 269.77 246.426 266.456 242.701 L 266.475 242.681 L 305.11 193.158 C 310.027 204.053 315.247 230.591 317.378 247.553 Z"/>
  <path style="fill: rgb(255, 202, 200);" d="M 266.456 242.701 C 262.94 238.752 257.995 236.292 252.518 236.292 L 251.019 236.292 L 251.019 186.681 L 251.019 151.776 C 267.759 151.776 289.837 156.163 305.11 182.428 L 266.475 242.681 L 266.456 242.701 Z"/>
  <path style="fill: rgb(249, 227, 226);" d="M 251.019 151.776 L 251.019 236.292 L 249.464 236.292 C 244 236.292 239.061 238.746 235.551 242.674 L 194.886 185.783 C 206.465 174.644 225.148 151.776 241.875 151.776 C 241.875 151.776 251.019 151.776 251.019 151.776 Z"/>
  <path style="fill: rgb(255, 202, 200);" d="M 194.886 193.158 L 235.551 242.674 C 232.224 246.398 230.176 251.461 230.176 257.02 C 230.176 261.179 229.84 265.264 229.189 269.226 L 184.605 247.532 C 186.743 230.563 183.547 204.046 194.886 193.158 Z"/>
  <path style="fill: rgb(249, 227, 226);" d="M 184.605 247.533 L 229.189 269.226 C 226.406 286.264 217.894 301.209 205.872 311.675 L 175.713 274.052 C 180.721 270.3 184.01 264.068 184.01 257.021 C 184.01 253.806 184.212 250.639 184.605 247.533 Z"/>
  <path style="fill: rgb(255, 202, 200);" d="M 175.713 274.051 L 205.873 311.674 C 194.622 321.481 180.305 327.36 164.722 327.36 L 139.325 327.36 C 126.575 327.36 116.242 316.255 116.242 302.554 C 116.242 288.853 126.575 277.748 139.325 277.748 L 164.722 277.748 C 168.801 277.748 172.595 276.382 175.713 274.051 Z"/>
  <path d="M 359.578 334.156 L 337.26 334.156 C 320.902 334.156 304.886 328.057 292.162 316.982 C 278.643 305.226 269.554 288.684 266.571 270.407 C 265.849 266.01 265.482 261.505 265.482 257.02 C 265.482 253.421 264.205 250.005 261.885 247.398 C 259.411 244.62 256.083 243.088 252.517 243.088 L 249.463 243.088 C 245.906 243.088 242.585 244.612 240.111 247.381 C 237.782 249.988 236.498 253.412 236.498 257.02 C 236.498 261.534 236.134 266.039 235.416 270.408 C 232.434 288.666 223.355 305.199 209.852 316.955 C 197.127 328.045 181.099 334.155 164.721 334.155 L 139.325 334.155 C 123.11 334.156 109.918 319.98 109.918 302.554 C 109.918 285.129 123.11 270.953 139.325 270.953 L 164.722 270.953 C 167.38 270.953 169.931 270.095 172.101 268.473 C 175.597 265.855 177.686 261.573 177.686 257.02 C 177.686 253.544 178.279 252.778 178.338 246.619 C 178.512 228.363 171.905 206.564 180.797 192.571 C 190.599 177.146 212.196 148.007 229.189 144.574 L 266.519 141.803 C 284.193 141.803 291.936 149.524 302.482 164.477 C 312.703 178.968 321.37 228.54 323.644 246.644 C 324.076 250.055 324.295 253.548 324.295 257.021 C 324.295 261.585 326.392 265.871 329.906 268.484 C 332.076 270.1 334.617 270.953 337.26 270.953 L 359.577 270.953 C 363.07 270.953 365.902 273.996 365.902 277.749 C 365.902 281.502 363.07 284.545 359.577 284.545 L 337.26 284.545 C 332.03 284.545 326.996 282.856 322.704 279.658 C 315.782 274.51 311.647 266.046 311.647 257.021 C 311.647 254.16 311.467 251.283 311.11 248.471 C 309.237 233.563 303.662 185.765 293.499 172.328 C 284.405 160.304 281.073 155.548 266.519 155.548 L 229.189 159.266 C 215.258 165.643 200.81 187.19 193.573 197.804 C 184.605 210.957 192.748 233.535 190.87 248.447 C 190.514 251.271 190.333 254.155 190.333 257.022 C 190.333 266.016 186.218 274.468 179.328 279.628 C 175.024 282.847 169.975 284.546 164.72 284.546 L 139.325 284.546 C 130.084 284.546 122.566 292.625 122.566 302.556 C 122.566 312.487 130.084 320.566 139.325 320.566 L 164.722 320.566 C 178.403 320.566 191.256 315.667 201.889 306.398 C 213.022 296.704 220.506 283.088 222.961 268.053 C 223.553 264.453 223.852 260.745 223.852 257.023 C 223.852 249.889 226.387 243.122 230.99 237.97 C 235.871 232.506 242.433 229.498 249.465 229.498 L 252.519 229.498 C 259.57 229.498 266.142 232.519 271.027 238.004 C 275.609 243.154 278.132 249.908 278.132 257.023 C 278.132 260.717 278.434 264.429 279.029 268.054 C 281.485 283.104 288.976 296.727 300.121 306.42 C 310.602 315.542 323.791 320.565 337.262 320.565 L 359.58 320.565 C 368.82 320.565 376.338 312.485 376.338 302.555 C 376.338 298.802 379.17 295.759 382.663 295.759 C 386.155 295.759 388.987 298.802 388.987 302.555 C 388.985 319.98 375.793 334.156 359.578 334.156 Z" style=""/>
  <path d="M 376.731 302.153 C 377.534 293.606 376.421 293.055 374.113 289.91 C 371.668 286.579 371.761 285.938 362.707 284.503 C 351.673 282.754 349.323 272.46 362.009 271.476 C 374.695 270.492 382.686 281.822 385.19 284.438 C 385.747 285.019 389.805 289.452 388.509 302.205 C 387.044 316.617 386.574 299.066 383.952 301.544 C 382.75 302.68 375.725 312.868 376.731 302.153 Z" style=""/>
  <path d="M 149.495 310.47 C 146.002 310.47 142.031 309.705 142.031 305.952 L 142.031 299.611 C 142.031 295.859 145.432 295.093 148.926 295.093 C 152.418 295.093 154.68 295.859 154.68 299.611 L 154.68 305.952 C 154.679 309.705 152.987 310.47 149.495 310.47 Z" style=""/>
  <path d="M 205.872 318.474 C 203.882 318.474 202.106 317.487 200.947 315.943 L 170.957 278.53 C 168.775 275.86 168.867 271.79 171.238 269.242 C 173.708 266.588 177.708 266.584 180.179 269.238 C 180.29 269.358 180.402 269.488 180.505 269.615 L 210.664 307.238 C 211.652 308.471 212.196 310.046 212.196 311.674 C 212.196 315.427 209.365 318.474 205.872 318.474 Z" style=""/>
  <path d="M 229.185 276.024 C 228.313 276.024 227.427 275.829 226.58 275.417 L 181.996 253.724 C 178.815 252.176 177.403 248.149 178.844 244.73 C 180.285 241.311 184.031 239.793 187.213 241.342 L 231.797 263.036 C 234.979 264.583 236.39 268.611 234.95 272.03 C 233.893 274.538 231.592 276.024 229.185 276.024 Z" style=""/>
  <path d="M 251.02 243.088 C 247.528 243.088 244.696 240.045 244.696 236.292 L 241.875 154.18 C 241.875 150.427 247.526 152.19 251.019 152.19 C 254.512 152.19 255.743 151.343 255.743 155.096 L 257.345 236.292 C 257.344 240.045 254.513 243.088 251.02 243.088 Z" style=""/>
  <path d="M 235.554 249.475 C 233.836 249.475 232.125 248.727 230.878 247.252 L 230.871 247.244 C 230.813 247.176 230.757 247.108 230.703 247.037 L 193.242 197.824 C 190.999 194.948 190.207 191.502 192.884 189.091 C 195.561 186.681 197.757 183.804 200 186.681 L 240.379 238.282 C 242.569 241.063 242.336 245.234 239.807 247.703 C 238.596 248.89 237.072 249.475 235.554 249.475 Z" style=""/>
  <path d="M 296.158 318.478 C 294.697 318.478 293.228 317.936 292.034 316.83 C 289.387 314.381 289.091 310.09 291.37 307.246 L 321.478 269.683 C 323.604 266.977 327.353 266.452 330.052 268.573 C 332.87 270.79 333.493 275.028 331.43 278.057 C 331.332 278.202 331.209 278.37 331.1 278.506 L 300.953 316.116 C 299.701 317.677 297.935 318.478 296.158 318.478 Z" style=""/>
  <path d="M 272.848 276.024 C 270.441 276.024 268.141 274.54 267.083 272.03 C 265.643 268.611 267.053 264.584 270.235 263.036 L 314.769 241.363 C 314.891 241.303 311.607 225.722 311.708 225.633 C 317.378 220.644 318.481 226.129 319.885 229.576 C 322.874 236.914 322.991 252.419 319.844 253.815 L 275.454 275.418 C 274.607 275.829 273.72 276.023 272.848 276.024 Z" style=""/>
  <path d="M 266.472 249.476 C 265.039 249.476 263.598 248.956 262.414 247.89 C 259.737 245.479 259.385 241.193 261.628 238.316 L 300 186.681 C 302.145 183.892 300.917 188.294 303.627 190.497 C 306.413 192.761 307.217 197.007 305.11 200 C 305.046 200.091 305.177 199.914 305.109 200 L 271.323 247.044 C 270.073 248.649 268.278 249.476 266.472 249.476 Z" style=""/>
  <path d="M 345.881 334.156 C 342.389 334.156 339.557 331.112 339.557 327.36 L 339.557 277.748 C 339.557 273.995 342.389 270.952 345.881 270.952 C 349.373 270.952 352.205 273.995 352.205 277.748 L 352.205 327.36 C 352.204 331.112 349.373 334.156 345.881 334.156 Z" style=""/>
  <g style="" transform="matrix(0.545052, 0, 0, 0.585738, 109.918121, 107.070496)"/>
  <g style="" transform="matrix(0.545052, 0, 0, 0.585738, 109.918121, 107.070496)"/>
  <g style="" transform="matrix(0.545052, 0, 0, 0.585738, 109.918121, 107.070496)"/>
  <g style="" transform="matrix(0.545052, 0, 0, 0.585738, 109.918121, 107.070496)"/>
  <g style="" transform="matrix(0.545052, 0, 0, 0.585738, 109.918121, 107.070496)"/>
  <g style="" transform="matrix(0.545052, 0, 0, 0.585738, 109.918121, 107.070496)"/>
  <g style="" transform="matrix(0.545052, 0, 0, 0.585738, 109.918121, 107.070496)"/>
  <g style="" transform="matrix(0.545052, 0, 0, 0.585738, 109.918121, 107.070496)"/>
  <g style="" transform="matrix(0.545052, 0, 0, 0.585738, 109.918121, 107.070496)"/>
  <g style="" transform="matrix(0.545052, 0, 0, 0.585738, 109.918121, 107.070496)"/>
  <g style="" transform="matrix(0.545052, 0, 0, 0.585738, 109.918121, 107.070496)"/>
  <g style="" transform="matrix(0.545052, 0, 0, 0.585738, 109.918121, 107.070496)"/>
  <g style="" transform="matrix(0.545052, 0, 0, 0.585738, 109.918121, 107.070496)"/>
  <g style="" transform="matrix(0.545052, 0, 0, 0.585738, 109.918121, 107.070496)"/>
  <g style="" transform="matrix(0.545052, 0, 0, 0.585738, 109.918121, 107.070496)"/>
</svg>