<?xml version="1.0" encoding="utf-8"?>
<svg version="1.1" id="Capa_1" x="0px" y="0px" viewBox="0 0 460 460" style="enable-background:new 0 0 460 460;" xmlns="http://www.w3.org/2000/svg">
  <g id="XMLID_992_">
    <g id="XMLID_897_" style="" transform="matrix(0.856507, 0, 0, 0.873342, 19.955614, 35.760689)">
      <path id="XMLID_3091_" style="" d="M 111.091 222.228 C 108.719 222.228 106.391 221.08 104.977 218.958 L 85.803 190.196 L 47.058 180.51 C 43.125 179.527 40.734 180.147 41.717 176.214 C 42.7 172.281 46.689 165.284 50.618 166.268 L 92.116 176.642 C 93.888 177.085 95.431 178.172 96.443 179.691 L 117.192 210.814 C 119.441 214.187 118.53 218.745 115.156 220.993 C 113.905 221.828 112.49 222.228 111.091 222.228 Z"/>
    </g>
    <g id="XMLID_899_" style="" transform="matrix(0.856507, 0, 0, 0.873342, 19.955614, 35.760689)">
      <path id="XMLID_3090_" style="" d="M 7.853 329.04 C 5.974 329.04 3.584 325.253 2.151 323.82 C -0.716 320.954 -0.716 316.306 2.151 313.439 L 43.648 271.941 C 45.024 270.564 46.891 269.791 48.838 269.791 L 100.71 269.791 C 104.764 269.791 108.05 273.077 108.05 277.131 C 108.05 281.185 104.764 284.471 100.71 284.471 L 51.878 284.471 L 12.531 323.82 C 11.098 325.253 9.731 329.04 7.853 329.04 Z"/>
    </g>
    <g id="XMLID_900_" style="" transform="matrix(0.856507, 0, 0, 0.873342, 19.955614, 35.760689)">
      <path id="XMLID_3089_" style="" d="M 51.902 433.808 C 50.799 433.808 46.609 429.466 45.555 428.938 C 41.929 427.125 40.459 422.716 42.272 419.09 L 63.021 377.593 C 63.825 375.985 65.191 374.728 66.86 374.06 L 118.732 353.311 C 122.498 351.803 126.769 353.637 128.274 357.4 C 129.78 361.164 127.949 365.436 124.185 366.942 L 74.904 386.655 L 55.403 425.656 C 54.117 428.228 54.595 433.808 51.902 433.808 Z"/>
    </g>
    <g id="XMLID_903_" style="" transform="matrix(0.856507, 0, 0, 0.873342, 19.955614, 35.760689)">
      <path id="XMLID_3088_" style="" d="M 348.909 222.228 C 347.51 222.228 346.095 221.828 344.844 220.994 C 341.471 218.746 340.559 214.188 342.808 210.815 L 363.557 179.692 C 364.57 178.172 366.113 177.085 367.884 176.643 L 409.381 166.269 C 413.31 165.285 419.347 173.304 420.33 177.238 C 421.313 181.171 416.875 179.528 412.942 180.511 L 374.197 190.197 L 355.022 218.959 C 353.609 221.08 351.281 222.227 348.909 222.228 Z"/>
    </g>
    <g id="XMLID_902_" style="" transform="matrix(0.856507, 0, 0, 0.873342, 19.955614, 35.760689)">
      <path id="XMLID_3087_" style="" d="M 452.147 329.04 C 450.268 329.04 448.902 325.254 447.468 323.82 L 408.121 284.472 L 359.29 284.472 C 355.236 284.472 351.95 281.186 351.95 277.132 C 351.95 273.078 355.236 269.792 359.29 269.792 L 411.161 269.792 C 413.108 269.792 414.975 270.565 416.352 271.942 L 457.849 313.44 C 460.715 316.306 460.715 320.954 457.849 323.821 C 456.417 325.253 454.025 329.04 452.147 329.04 Z"/>
    </g>
    <g id="XMLID_901_" style="" transform="matrix(0.856507, 0, 0, 0.873342, 19.955614, 35.760689)">
      <path id="XMLID_3086_" style="" d="M 410.145 435.855 C 407.453 435.855 405.883 428.228 404.597 425.656 L 385.096 386.655 L 335.816 366.942 C 332.052 365.437 330.221 361.165 331.726 357.4 C 333.231 353.635 337.507 351.804 341.268 353.311 L 393.139 374.06 C 394.809 374.728 396.175 375.984 396.978 377.593 L 417.727 419.09 C 419.54 422.716 418.07 427.125 414.445 428.938 C 413.391 429.465 411.248 435.855 410.145 435.855 Z"/>
    </g>
    <g id="XMLID_906_" style="" transform="matrix(0.856507, 0, 0, 0.873342, 19.955614, 35.760689)">
      <path id="XMLID_3085_" style="" d="M 190.714 82.563 C 188.342 82.563 186.014 81.415 184.6 79.293 L 158.405 40 C 156.156 36.627 147.857 31.046 151.231 28.798 C 154.604 26.55 168.372 28.484 170.62 31.857 L 196.815 71.15 C 199.064 74.523 198.153 79.081 194.779 81.329 C 193.528 82.164 192.113 82.563 190.714 82.563 Z"/>
    </g>
    <g id="XMLID_904_" style="" transform="matrix(0.856507, 0, 0, 0.873342, 19.955614, 35.760689)">
      <path id="XMLID_3084_" style="" d="M 269.286 82.563 C 267.887 82.563 266.472 82.163 265.221 81.329 C 261.848 79.081 260.936 74.523 263.185 71.15 L 289.38 31.857 C 291.629 28.484 304.886 28.084 308.258 30.333 C 311.631 32.581 303.844 36.627 301.595 40 L 275.4 79.293 C 273.986 81.415 271.659 82.563 269.286 82.563 Z"/>
    </g>
    <g id="XMLID_875_" style="" transform="matrix(0.856507, 0, 0, 0.873342, 19.955614, 35.760689)">
      <ellipse id="XMLID_1909_" style="fill: rgb(211, 211, 211);" cx="230" cy="271.686" rx="127.782" ry="146.423"/>
    </g>
    <g id="XMLID_907_" style="" transform="matrix(0.856507, 0, 0, 0.873342, 19.955614, 35.760689)">
      <ellipse id="XMLID_1908_" style="fill: rgb(193, 186, 183);" cx="230" cy="271.686" rx="101.939" ry="146.935"/>
    </g>
    <path id="XMLID_2030_" style="fill: rgb(255, 255, 255);" d="M 216.953 197.993 C 213.48 197.993 210.666 200.863 210.666 204.403 L 208.474 401.125 C 210.557 401.275 214.842 412.531 216.953 412.531 C 219.063 412.531 223.788 401.275 225.869 401.125 L 223.239 204.403 C 223.239 200.863 220.425 197.993 216.953 197.993 Z"/>
    <g id="XMLID_898_" style="" transform="matrix(0.856507, 0, 0, 0.873342, 19.955614, 35.760689)">
      <path id="XMLID_1907_" style="" d="M148.22,140.71c0-35.462,36.614-76.03,81.78-76.03s81.78,40.568,81.78,76.03 S275.166,193.1,230,193.1S148.22,176.172,148.22,140.71z"/>
    </g>
    <path id="XMLID_2032_" style="opacity: 0.49; fill: rgb(208, 213, 217);" d="M 247.58 99.904 C 263.23 113.054 273.215 131.946 273.215 149.422 C 273.215 180.392 241.855 195.176 203.17 195.176 C 186.32 195.176 170.863 192.369 158.779 186.644 C 171.354 198.597 192.713 204.403 216.953 204.403 C 255.637 204.403 286.997 189.619 286.997 158.648 C 286.997 136.47 270.915 112.008 247.58 99.904 Z"/>
    <circle style="fill: rgb(216, 216, 216);" cx="193.415" cy="101.825" r="7.236" transform="matrix(0.856507, 0, 0, 0.688072, 19.955614, 53.285194)"/>
    <circle style="fill: rgb(216, 216, 216);" cx="256.352" cy="102.847" r="7.236" transform="matrix(0.856507, 0, 0, 0.71895, 19.955614, 50.522232)"/>
    <path d="M 179.482 108.6 C 183.488 109.962 193.663 108.6 195.698 115.75" style="stroke-width: 4px; stroke-linecap: round; stroke: rgb(171, 168, 168); fill: none;"/>
    <path d="M 246.097 109.047 C 243.564 110.984 231.437 108.555 230.758 116.644" style="stroke-width: 4px; stroke-linecap: round; stroke: rgb(171, 168, 168); fill: none;"/>
  </g>
  <g/>
  <g/>
  <g/>
  <g/>
  <g/>
  <g/>
  <g/>
  <g/>
  <g/>
  <g/>
  <g/>
  <g/>
  <g/>
  <g/>
  <g/>
</svg>