<?xml version="1.0" encoding="utf-8"?>
<svg class="icon" height="512" viewBox="0 0 1024 1024" version="1.1" xmlns="http://www.w3.org/2000/svg">
  <path d="M 217.662 704.421 C 200.553 803.659 192.568 853.78 221.084 882.364 C 276.773 938.256 417.472 875.371 440.091 865.255 C 579.024 803.123 766.937 635.217 717.272 481.992 C 689.303 395.633 588.377 321.66 488.124 327.523 C 409.418 332.086 356.605 384.362 330.553 410.119 C 255.6 484.24 240.532 571.705 217.662 704.422 Z" style="fill: rgb(243, 120, 37);"/>
  <path d="M 255.841 914 C 258.615 923.827 306.702 918.644 323.764 916.801 C 531.256 894.448 676.267 753.906 719.063 677.849 C 719.968 676.241 721.356 673.812 723.005 670.641 C 735.127 647.714 768.321 582.722 750.917 509.163 C 743.286 476.914 738.783 457.866 726.855 455.191 C 685.481 445.903 663.562 657.992 502.28 787.908 C 390.714 877.817 251.157 897.191 255.843 914.001 Z" style="fill: rgb(190, 91, 25);"/>
  <path d="M 316.69 961.989 C 301.588 961.989 286.856 960.195 272.902 956.078 C 258.947 951.96 245.769 945.518 233.775 936.222 C 205.549 914.344 191.576 882.363 185.499 847.296 C 179.423 812.229 181.242 774.077 184.601 739.857 C 185.19 734.058 187.913 664.004 198.681 656.953 C 209.449 649.902 211.472 664.446 217.377 664.446 C 223.678 664.446 223.786 637.904 236.868 633.079 C 249.95 628.254 230.121 735.799 230.121 742.099 C 230.121 742.494 233.468 680.216 240.163 651.508 C 246.858 622.8 234.518 726.147 228.883 757.867 C 223.898 785.927 225.434 804.216 229.216 832.301 C 232.998 860.386 242.329 885.139 261.72 900.167 C 269.243 905.996 277.78 910.077 287.06 912.7 C 296.339 915.324 306.36 916.49 316.849 916.49 C 350.362 916.49 388.643 904.599 422.756 890.383 C 456.869 876.168 486.814 859.628 503.655 850.332 C 518.854 841.937 541.188 828.819 566.366 811.538 C 591.545 794.257 619.569 772.813 646.147 747.765 C 684.051 712.028 711.071 676.599 727.094 641.727 C 743.118 606.854 748.145 572.537 742.065 539.024 C 737.029 511.255 724.23 484.472 704.618 459.863 C 685.006 435.255 658.58 412.821 626.287 393.749 C 588.109 371.204 544.986 358.656 502.354 356.389 C 459.721 354.122 417.58 362.136 381.364 380.711 C 335.829 404.095 306.077 440.741 285.796 482.982 C 265.515 525.222 246.871 622.298 239.216 668.055 C 238.275 673.493 238.261 681.611 223.645 674.939 C 209.029 668.267 239.306 687.375 215.58 682.62 C 197.136 678.924 214.198 652.086 197.196 680.409 C 180.194 708.732 201.699 621.327 201.699 615.021 C 201.699 614.351 201.728 613.688 201.784 613.033 C 201.841 612.378 201.925 611.731 202.036 611.092 C 207.445 578.897 213.565 551.113 220.817 526.339 C 228.069 501.565 236.453 479.801 246.388 459.645 C 259.928 432.172 276.034 408.658 294.975 388.822 C 313.916 368.986 335.691 352.829 360.569 340.07 C 382.447 328.84 406.115 320.71 430.902 315.812 C 455.689 310.914 481.594 309.249 507.943 310.949 C 536.633 312.858 564.08 318.402 589.939 327.122 C 615.798 335.842 640.069 347.737 662.403 362.346 C 694.038 380.871 722.061 405.798 743.733 434.69 C 765.405 463.581 780.727 496.438 786.961 530.823 C 791.148 553.899 791.247 577.254 787.288 600.723 C 783.328 624.192 775.309 647.776 763.258 671.307 C 753.825 689.729 741.891 708.162 727.555 726.477 C 713.22 744.791 696.484 762.988 677.446 780.936 C 649.043 807.742 619.18 830.609 592.386 849.005 C 565.592 867.401 541.867 881.326 525.738 890.246 C 505.429 901.47 472.954 919.407 435.663 934.538 C 398.372 949.669 356.264 961.994 316.689 961.994 L 316.69 961.992 L 316.69 961.989 Z" fill="#000000" style=""/>
  <path d="M584.142 84.818c-41.555 0.651-110.645 178.651-40.402 241.319 24.946 22.266 71.326 33.41 95.815 13.689 57.216-45.993-10.004-255.714-55.414-255.007z" fill="#6BE166"/>
  <path d="M 606.361 372.903 C 578.471 372.903 548.757 361.142 528.602 343.166 C 504.944 322.052 491.919 289.372 490.96 248.65 C 490.195 216.996 496.732 180.872 509.359 146.937 C 518.758 121.603 544.902 67.096 583.833 66.48 C 600.703 66.218 616.914 72.52 631.89 94.045 C 642.646 109.467 652.969 130.444 661.707 154.705 C 682.146 211.282 703.501 317.672 653.894 357.595 C 640.673 368.249 623.871 372.891 606.363 372.903 L 606.361 372.903 Z M 587.715 108.554 C 582.74 111.451 572.575 119.697 563.301 137.447 C 552.853 157.443 544.354 182.721 539.986 206.798 C 531.522 253.497 538.447 290.786 558.978 309.105 C 577.97 326.056 612.065 332.706 625.307 322.04 C 634.729 314.466 643.216 288.174 636.155 239.011 C 629.199 192.828 614.244 151.297 592.663 114.088 C 598.97 123.599 588.92 112.191 584.359 108.553 L 587.715 108.554 Z M 582.464 107.335 Z M 584.142 84.818 Z" fill="#000000"/>
  <path d="M653.562 319.874c-7.266 27.479 3.764 66.512 27.376 75.284 49.79 18.502 154.331-97.881 136.789-128.13-15.718-27.079-146.426-14.293-164.165 52.847z" fill="#6BE166"/>
  <path d="M 692.503 419.945 C 692.409 419.946 692.298 419.946 692.185 419.946 C 685.288 419.946 678.686 418.691 672.591 416.397 C 655.352 409.976 641.515 394.087 634.02 371.775 C 627.689 352.92 626.766 331.852 631.477 314.022 C 644.72 263.913 700.92 239.137 749.102 232.669 C 765.436 230.479 816.728 226.761 834.078 256.681 C 841.525 269.513 844.073 284.947 835.063 304.736 C 828.881 318.299 818.832 333.514 805.998 348.731 C 776.409 383.876 731.535 419.943 692.503 419.943 L 692.503 419.945 Z M 774.427 276.518 C 755.432 276.66 737.302 280.176 720.546 286.495 C 707.459 291.243 681.384 303.62 675.6 325.704 C 670.593 344.673 679.102 370.19 688.867 373.783 C 693.43 375.494 707.471 373.931 730.74 357.198 C 765.053 331.799 780.583 314.768 796.89 275.533 C 778.795 311.694 793.497 285.554 796.203 279.029 C 791.652 277.592 784.044 276.519 774.452 276.519 L 774.427 276.518 Z M 653.517 319.863 Z M 799.726 280.636 Z" fill="#000000"/>
  <path d="M606.773 535.814l71.759 68.679z" fill="#EF863F"/>
  <path d="M 679.651 622.829 C 673.519 622.822 667.958 620.39 663.872 616.438 L 592.105 547.82 C 587.635 543.644 584.848 537.715 584.848 531.133 C 584.848 518.534 596.181 508.32 608.78 508.32 C 615.006 508.32 619.531 510.815 623.647 514.858 L 695.414 583.523 C 699.756 587.684 702.455 593.529 702.455 600.006 C 702.455 612.605 692.241 622.819 679.642 622.819 C 679.641 622.819 679.64 622.819 679.638 622.819 L 679.651 622.829 Z" fill="#000000"/>
  <path d="M579.27 648.717l34.756 33.25z" fill="#EF863F"/>
  <path d="M 616.265 698.065 C 616.242 698.065 616.212 698.065 616.183 698.065 C 610.093 698.065 604.563 695.671 600.482 691.772 L 565.746 658.53 C 561.276 654.354 558.489 648.425 558.489 641.843 C 558.489 629.244 568.703 619.03 581.302 619.03 C 587.528 619.03 593.172 621.525 597.288 625.568 L 632.006 658.77 C 636.348 662.931 639.047 668.776 639.047 675.253 C 639.047 687.852 628.833 698.066 616.234 698.066 C 616.233 698.066 616.232 698.066 616.23 698.066 Z" fill="#000000"/>
</svg>