<?xml version="1.0" encoding="utf-8"?>
<svg version="1.1" x="0px" y="0px" viewBox="0 0 512.001 512.001" style="enable-background:new 0 0 512.001 512.001;" xmlns="http://www.w3.org/2000/svg">
  <path style="fill:#FBCDCB;" d="M481.875,124.765c11.723,17.226-2.459,47.32-31.683,67.193c-18.262,12.429-37.947,17.942-53.1,16.112 c-3.937-17.324-10.146-33.073-19.178-46.671h0.011c6.01-11.271,16.299-22.651,29.808-31.838 C436.958,109.679,470.152,107.529,481.875,124.765z"/>
  <path style="fill: rgb(107, 79, 49);" d="M 397.092 208.07 C 402.981 234.051 409.984 263.036 407.294 294.323 C 405 320.977 393.221 347.088 384.873 370.269 C 373.69 338.387 342.878 328.915 306.608 328.915 C 298.028 328.915 289.757 329.444 281.972 330.68 C 264.758 333.404 247.245 333.404 230.031 330.68 C 222.245 329.445 213.974 328.915 205.395 328.915 C 169.235 328.915 138.488 338.333 127.218 369.994 C 118.837 346.89 106.455 321.427 104.172 294.894 C 101.481 263.619 108.966 234.064 114.744 208.093 C 118.615 190.592 124.813 174.712 133.878 161.026 C 137.285 155.843 141.113 150.98 145.391 146.469 C 158.559 132.497 175.916 121.8 198.292 115.259 C 214.591 110.495 233.56 107.936 255.538 107.936 C 277.836 107.936 297.08 110.572 313.589 115.468 C 335.887 122.085 353.213 132.837 366.402 146.843 C 368.056 148.585 369.634 150.372 371.144 152.213 C 373.559 155.157 375.82 158.223 377.915 161.399 C 386.946 174.997 393.154 190.746 397.092 208.07 Z"/>
  <path style="fill:#FBCDCB;" d="M 126.657 367.351 C 137.928 335.69 168.674 326.272 204.834 326.272 C 213.414 326.272 221.685 326.801 229.47 328.037 C 246.684 330.761 264.197 330.761 281.411 328.037 C 289.197 326.802 297.468 326.272 306.047 326.272 C 342.317 326.272 373.129 335.745 384.312 367.626 C 387.234 375.93 388.811 385.745 388.811 397.324 C 388.811 453.346 351.757 498.758 306.046 498.758 C 286.979 498.758 269.433 490.862 255.439 477.596 C 241.445 490.862 223.899 498.758 204.832 498.758 C 159.122 498.758 122.067 453.345 122.067 397.324 C 122.068 385.624 123.69 375.71 126.657 367.351 Z M 333.265 396.431 C 333.265 383.936 323.131 373.802 310.636 373.802 C 298.131 373.802 288.007 383.936 288.007 396.431 C 288.007 408.926 298.131 419.06 310.636 419.06 C 323.129 419.061 333.265 408.926 333.265 396.431 Z M 222.874 396.431 C 222.874 383.936 212.75 373.802 200.245 373.802 C 187.75 373.802 177.616 383.936 177.616 396.431 C 177.616 408.926 187.75 419.06 200.245 419.06 C 212.751 419.061 222.874 408.926 222.874 396.431 Z"/>
  <path style="fill:#FFF3E6;" d="M337.232,13.505c25.364-17.324,80.758,46.571,29.169,133.338 c-13.19-14.006-30.514-24.758-52.813-31.375C344.224,62.745,311.824,30.862,337.232,13.505z"/>
  <g>
    <path style="fill:#666666;" d="M311.195,376.445c12.495,0,22.629,10.134,22.629,22.629s-10.134,22.629-22.629,22.629 c-12.505,0-22.629-10.134-22.629-22.629C288.566,386.579,298.689,376.445,311.195,376.445z"/>
    <path style="fill:#666666;" d="M200.805,376.445c12.505,0,22.629,10.134,22.629,22.629s-10.124,22.629-22.629,22.629 c-12.495,0-22.629-10.134-22.629-22.629S188.311,376.445,200.805,376.445z"/>
  </g>
  <circle style="fill: rgb(107, 79, 49);" cx="256.84" cy="494.095" r="11.804"/>
  <path style="fill: rgb(216, 216, 216); stroke: rgb(0, 0, 0); stroke-width: 18px;" d="M 232.778 499.69 C 243.037 504.539 249.693 506.383 259.079 506.405 C 268.243 506.427 272.516 506.044 283.139 499.131"/>
  <path style="fill:#FFF3E6;" d="M174.769,13.505c25.375,17.336-6.915,49.152,23.522,101.755 c-22.376,6.539-39.734,17.236-52.901,31.21h-0.011C94.177,59.889,149.437-3.788,174.769,13.505z"/>
  <path style="fill:#FBCDCB;" d="M133.866,161.015l0.011,0.011c-9.065,13.686-15.263,29.566-19.134,47.067h-0.011 c-15.119,1.72-34.782-3.783-52.923-16.134c-29.224-19.872-43.406-49.968-31.683-67.193c11.723-17.236,44.917-15.086,74.141,4.797 C117.622,138.65,127.833,149.865,133.866,161.015z"/>
  <path d="M 111.348 120.239 C 95.672 109.574 83.997 102.564 68.133 101.537 C 50.231 100.371 36.613 110.096 28.749 121.659 C 20.882 133.219 14.497 155.354 22.146 171.579 C 28.927 185.962 38.445 194.058 54.116 204.715 C 69.096 214.914 88.131 216.563 103.097 218.075 C 99.545 240.528 90.499 265.345 93.021 294.671 C 95.265 320.748 109.051 346.301 117.144 369.571 C 114.491 378.421 113.148 388.436 113.148 399.407 C 113.148 461.183 155.031 511.441 206.512 511.441 C 224.753 511.441 242.078 505.318 257.119 493.64 C 272.16 505.319 289.485 511.441 307.726 511.441 C 359.206 511.441 401.09 461.183 401.09 399.407 C 401.09 388.524 399.773 378.6 397.173 369.846 C 405.223 346.537 417.855 321.463 420.111 295.241 C 422.588 266.442 414.606 240.578 411.019 218.109 C 425.981 216.632 443.915 213.831 458.979 203.581 C 474.655 192.921 483.605 187.103 490.385 172.72 C 498.034 156.495 495.067 131.513 487.202 119.956 C 479.338 108.391 469.705 102.657 451.803 103.818 C 435.939 104.845 418.569 109.575 402.895 120.24 C 396.584 124.531 390.77 129.378 385.639 134.581 C 396.164 111.732 400.768 88.714 398.99 67.142 C 397.132 44.617 388.279 24.384 374.699 11.632 C 361.087 -1.151 331.944 -2.362 319.845 5.903 C 302.931 17.458 316.602 32.283 317.707 48.274 C 318.763 63.573 319.944 80.718 309.326 102.508 C 293.535 98.709 275.87 96.779 256.659 96.779 C 237.762 96.779 220.377 98.648 204.828 102.324 C 194.3 80.616 195.48 63.523 196.534 48.269 C 197.639 32.281 212.451 18.026 195.535 6.469 C 183.268 -1.904 153.397 -1.348 139.589 11.592 C 126.029 24.3 117.166 44.474 115.273 66.944 C 113.45 88.571 118.047 111.666 128.606 134.587 C 123.471 129.384 117.659 124.534 111.348 120.239 Z M 41.318 163.681 C 37.062 154.652 39.432 140.326 42.857 135.293 C 46.279 130.26 57.939 122.616 67.902 123.261 C 79.868 124.036 87.014 129.322 99.424 137.766 C 108.948 144.246 116.981 152.14 122.557 160.403 C 116.197 171.26 111.155 183.578 107.499 197.163 C 95.579 196.492 77.103 193.608 64.332 184.912 C 51.926 176.476 46.432 174.528 41.318 163.681 Z M 414.814 137.765 C 427.225 129.321 441.204 124.035 453.17 123.26 C 463.135 122.618 469.668 133.106 473.091 138.141 C 476.514 143.171 478.314 155.221 474.058 164.25 C 468.944 175.098 459.466 177.614 447.055 186.054 C 434.16 194.831 418.463 196.586 406.539 197.19 C 402.838 183.71 397.785 171.493 391.456 160.736 C 397.051 152.339 405.162 144.328 414.814 137.765 Z M 338.851 46.814 C 337.727 30.534 328.438 21.384 334.648 17.14 C 338.692 14.378 355.211 22.408 360.185 27.083 C 369.842 36.151 376.451 51.778 377.861 68.882 C 379.426 87.868 374.888 108.507 364.723 129.192 C 354.585 120.811 342.893 114.012 329.748 108.875 C 341.369 83.297 339.936 62.519 338.851 46.814 Z M 311.693 125.069 C 331.3 130.888 347.487 140.47 359.834 153.579 C 361.304 155.127 362.727 156.741 364.068 158.375 C 366.246 161.029 368.304 163.822 370.205 166.703 C 378.136 178.643 384.083 193.162 387.875 209.852 C 393.119 232.989 400.634 261.106 397.855 293.424 C 396.356 310.837 387.198 327.683 382.963 343.754 C 376.99 337.036 358.187 325.891 349.358 321.775 C 344.052 319.301 325.869 320.465 323.314 325.766 C 320.759 331.067 321.301 335.377 350.087 344.974 C 363.761 349.533 371.689 360.944 375.997 373.225 C 378.584 380.577 379.896 389.386 379.896 399.406 C 379.896 449.494 347.523 490.243 307.729 490.243 C 291.99 490.243 277.012 483.931 264.414 471.987 C 260.326 468.111 253.919 468.111 249.83 471.987 C 237.232 483.931 222.254 490.243 206.515 490.243 C 166.723 490.243 134.348 449.494 134.348 399.406 C 134.348 389.401 135.665 380.586 138.253 373.201 C 138.331 372.995 138.413 372.791 138.478 372.579 C 146.853 349.644 168.486 338.952 206.515 338.952 C 214.928 338.952 222.658 339.502 229.495 340.586 C 247.827 343.487 266.417 343.487 284.754 340.586 C 289.08 339.899 320.653 337.011 325.506 338.033 C 348.438 342.862 356.645 340.423 357.764 330.327 C 358.883 320.231 331.976 315.959 326.139 316.293 C 320.438 316.619 286.498 318.847 281.436 319.65 C 265.301 322.202 248.94 322.202 232.812 319.65 C 224.884 318.392 216.037 317.754 206.515 317.754 C 184.938 317.754 167.641 320.91 153.635 327.403 C 144.786 331.506 137.356 336.946 131.363 343.657 C 127.089 327.596 117.345 312.49 115.852 295.131 C 113.062 262.712 121.082 232.88 126.213 209.82 C 129.936 192.984 135.865 178.348 143.854 166.286 C 146.95 161.576 150.431 157.173 154.225 153.176 C 166.504 140.145 182.709 130.622 202.386 124.87 C 218.043 120.294 236.303 117.974 256.659 117.974 C 277.303 117.976 295.82 120.362 311.693 125.069 Z M 136.393 68.724 C 137.83 51.667 144.443 36.091 154.081 27.059 C 159.05 22.402 172.136 15.524 176.175 18.278 C 182.385 22.521 176.512 30.53 175.386 46.806 C 174.304 62.453 172.876 83.148 184.371 108.61 C 171.18 113.705 159.464 120.467 149.331 128.812 C 139.269 108.196 134.799 87.635 136.393 68.724 Z" style=""/>
  <path d="M200.805,365.846c-18.322,0-33.229,14.906-33.229,33.228c0,18.322,14.906,33.229,33.229,33.229s33.228-14.906,33.228-33.229 C234.033,380.751,219.127,365.846,200.805,365.846z M200.805,411.105c-6.634,0-12.031-5.397-12.031-12.031 c0-6.634,5.397-12.03,12.031-12.03c6.634,0,12.03,5.397,12.03,12.03S207.439,411.105,200.805,411.105z"/>
  <path d="M277.967,399.074c0,18.322,14.906,33.229,33.229,33.229s33.228-14.906,33.228-33.229c0-18.323-14.905-33.228-33.228-33.228 C292.873,365.846,277.967,380.752,277.967,399.074z M311.196,387.043c6.634,0,12.03,5.397,12.03,12.03s-5.397,12.031-12.03,12.031 s-12.031-5.397-12.031-12.031C299.164,392.44,304.562,387.043,311.196,387.043z"/>
  <path d="M 177.959 233.93 C 172.105 233.93 167.36 238.675 167.36 244.529 L 167.36 251.003 C 167.36 256.857 172.105 258.754 177.959 258.754 C 183.813 258.754 188.558 256.857 188.558 251.003 L 188.558 244.529 C 188.558 238.675 183.813 233.93 177.959 233.93 Z"/>
  <path d="M 334.041 258.753 C 339.894 258.753 344.64 256.856 344.64 251.002 L 344.64 244.528 C 344.64 238.674 339.894 233.929 334.041 233.929 C 328.188 233.929 323.442 238.674 323.442 244.528 L 323.442 251.002 C 323.442 256.856 328.188 258.753 334.041 258.753 Z"/>
</svg>