<?xml version="1.0" encoding="utf-8"?>
<svg version="1.1" id="Capa_1" x="0px" y="0px" viewBox="0 0 205.979 205.979" style="enable-background:new 0 0 205.979 205.979;" xmlns="http://www.w3.org/2000/svg">
  <g>
    <g>
      <ellipse style="fill: rgb(88, 75, 65);" cx="102.989" cy="120.685" rx="55.332" ry="76.156"/>
      <g>
        <path style="fill: rgb(26, 23, 21);" d="M39.163,124.124c0,23.721,8.021,45.026,20.76,59.7c16.632-12.247,28.149-38.68,28.149-69.33 c0-24.012-7.071-45.434-18.13-59.479C51.529,68.943,39.163,94.67,39.163,124.124z"/>
        <path style="fill: rgb(26, 23, 21);" d="M166.816,124.124c0,23.721-8.021,45.026-20.76,59.7c-16.633-12.247-28.149-38.68-28.149-69.33 c0-24.012,7.071-45.434,18.13-59.479C154.45,68.943,166.816,94.67,166.816,124.124z"/>
      </g>
      <g>
        <g>
          <g>
            <path style="fill:#FFC061;" d="M81.309,201.876c0,2.266-1.837,4.103-4.103,4.103l0,0c-2.266,0-4.102-1.837-4.102-4.103v-15.291 c0-2.266,1.837-4.103,4.102-4.103l0,0c2.266,0,4.103,1.837,4.103,4.103V201.876z"/>
            <path style="opacity:0.1;fill:#FFFFFF;" d="M77.206,182.482c-2.266,0-4.102,1.837-4.102,4.103v15.291 c0,2.266,1.837,4.103,4.102,4.103V182.482z"/>
          </g>
          <g>
            <path style="fill:#FFC061;" d="M97.719,201.876c0,2.266-1.837,4.103-4.103,4.103l0,0c-2.266,0-4.102-1.837-4.102-4.103v-15.291 c0-2.266,1.837-4.103,4.102-4.103l0,0c2.266,0,4.103,1.837,4.103,4.103V201.876z"/>
            <path style="opacity:0.1;fill:#FFFFFF;" d="M93.616,182.482c-2.266,0-4.102,1.837-4.102,4.103v15.291 c0,2.266,1.837,4.103,4.102,4.103V182.482z"/>
          </g>
          <g>
            <path style="fill:#FFC061;" d="M89.514,201.876c0,2.266-1.837,4.103-4.103,4.103l0,0c-2.266,0-4.103-1.837-4.103-4.103v-15.291 c0-2.266,1.837-4.103,4.103-4.103l0,0c2.266,0,4.103,1.837,4.103,4.103V201.876z"/>
            <path style="opacity:0.1;fill:#FFFFFF;" d="M85.411,182.482c-2.266,0-4.103,1.837-4.103,4.103v15.291 c0,2.266,1.837,4.103,4.103,4.103V182.482z"/>
          </g>
        </g>
        <g>
          <g>
            <path style="fill:#FFC061;" d="M116.464,201.876c0,2.266-1.837,4.103-4.103,4.103l0,0c-2.266,0-4.103-1.837-4.103-4.103 v-15.291c0-2.266,1.837-4.103,4.103-4.103l0,0c2.266,0,4.103,1.837,4.103,4.103V201.876z"/>
            <path style="opacity:0.1;fill:#FFFFFF;" d="M112.362,182.482c-2.266,0-4.103,1.837-4.103,4.103v15.291 c0,2.266,1.837,4.103,4.103,4.103V182.482z"/>
          </g>
          <g>
            <path style="fill:#FFC061;" d="M132.875,201.876c0,2.266-1.837,4.103-4.103,4.103l0,0c-2.266,0-4.102-1.837-4.102-4.103 v-15.291c0-2.266,1.837-4.103,4.102-4.103l0,0c2.266,0,4.103,1.837,4.103,4.103V201.876z"/>
            <path style="opacity:0.1;fill:#FFFFFF;" d="M128.772,182.482c-2.266,0-4.102,1.837-4.102,4.103v15.291 c0,2.266,1.837,4.103,4.102,4.103V182.482z"/>
          </g>
          <g>
            <path style="fill:#FFC061;" d="M124.669,201.876c0,2.266-1.836,4.103-4.103,4.103l0,0c-2.266,0-4.103-1.837-4.103-4.103 v-15.291c0-2.266,1.837-4.103,4.103-4.103l0,0c2.267,0,4.103,1.837,4.103,4.103V201.876z"/>
            <path style="opacity:0.1;fill:#FFFFFF;" d="M120.567,182.482c-2.266,0-4.103,1.837-4.103,4.103v15.291 c0,2.266,1.837,4.103,4.103,4.103V182.482z"/>
          </g>
        </g>
      </g>
      <g>
        <g>
          <g>
            <circle style="fill: rgb(59, 51, 46);" cx="73.543" cy="46.063" r="31.668"/>
          </g>
          <g>
            <circle style="fill:#9C8472;" cx="73.543" cy="46.063" r="21.161"/>
          </g>
          <g>
            <circle style="fill:#FFD375;" cx="73.543" cy="46.063" r="15.448"/>
          </g>
          <g>
            <circle style="fill:#5E4E46;" cx="73.543" cy="46.063" r="8.651"/>
          </g>
          <circle style="fill:#FFFFFF;" cx="67.007" cy="40.388" r="3.534"/>
        </g>
        <g>
          <g>
            <circle style="fill: rgb(59, 51, 46);" cx="132.435" cy="46.063" r="31.668"/>
          </g>
          <g>
            <circle style="fill:#9C8472;" cx="132.436" cy="46.063" r="21.161"/>
          </g>
          <g>
            <circle style="fill:#FFD375;" cx="132.436" cy="46.063" r="15.449"/>
          </g>
          <g>
            <circle style="fill:#5E4E46;" cx="132.436" cy="46.063" r="8.651"/>
          </g>
          <circle style="fill:#FFFFFF;" cx="125.899" cy="40.388" r="3.534"/>
        </g>
      </g>
      <path style="fill:#FFAE33;" d="M102.989,57.07c-5.427,0-10.543,7.831-10.543,7.831c0,11.885,10.543,19.171,10.543,19.171 s10.544-7.222,10.544-19.107C113.533,64.965,108.417,57.07,102.989,57.07z"/>
      <g>
        <path style="fill: rgb(26, 23, 21);" d="M102.989,35.192c0,0-6.918-18.179-20.795-18.179c-6.079,0-14.113,0-18.721,0 c-4.607,0-15.816-6.38-15.816-17.012c0,0,28.221,0,36.491,0C96.199,0.001,102.989,15.123,102.989,35.192z"/>
        <path style="fill: rgb(26, 23, 21);" d="M102.989,35.192c0,0,6.919-18.179,20.795-18.179c6.079,0,14.113,0,18.721,0 c4.607,0,15.816-6.38,15.816-17.012c0,0-28.222,0-36.491,0C109.78,0.001,102.989,15.123,102.989,35.192z"/>
      </g>
    </g>
    <path style="opacity:0.1;fill:#FFCE99;" d="M102.989,34.414c-0.003-0.007-0.006-0.014-0.008-0.021 C102.802,14.724,96.038,0,84.148,0c-8.27,0-36.491,0-36.491,0c0,9.368,8.698,15.432,13.919,16.743 C50.021,21.464,41.876,32.81,41.876,46.063c0,10.368,4.983,19.571,12.683,25.348c-9.585,14.087-15.396,32.523-15.396,52.712 c0,23.721,8.021,45.026,20.76,59.7c2.304-1.697,4.506-3.675,6.597-5.891c2.156,2.604,4.459,4.978,6.892,7.101 c-0.196,0.479-0.308,1.002-0.308,1.551v15.291c0,0.85,0.258,1.639,0.701,2.294c0.737,1.091,1.986,1.809,3.402,1.809 c2.266,0,4.103-1.837,4.103-4.103c0,0.85,0.258,1.639,0.701,2.294c0.737,1.091,1.986,1.809,3.402,1.809 c2.266,0,4.103-1.837,4.103-4.103c0,0.566,0.115,1.106,0.322,1.597c0.161,0.38,0.391,0.718,0.652,1.029 c0.17,0.201,0.355,0.384,0.56,0.549c0.164,0.133,0.336,0.253,0.52,0.359c0.605,0.352,1.298,0.568,2.048,0.568 c2.266,0,4.103-1.837,4.103-4.103v-5.388c1.735,0.226,3.492,0.353,5.27,0.353V34.414z"/>
  </g>
</svg>