<?xml version="1.0" encoding="utf-8"?>
<svg version="1.1" id="Layer_1" x="0px" y="0px" viewBox="0 0 512 512" style="enable-background:new 0 0 512 512;" xmlns="http://www.w3.org/2000/svg">
  <path style="fill: none; stroke: rgb(3, 3, 3); stroke-width: 32px;" d="M 300.873 237.483 C 290.217 237.483 281.571 228.887 281.571 218.28 C 281.571 207.675 290.217 199.079 300.873 199.079 C 311.517 199.079 320.162 207.675 320.162 218.28 C 320.162 228.887 311.516 237.483 300.873 237.483 M 252.465 87.122 L 252.465 293.08 C 252.466 293.08 252.466 293.08 252.468 293.08 C 271.8 293.08 290.1 298.854 303.997 309.338 C 318.834 320.532 327.005 335.701 327.005 352.051 C 327.005 368.4 318.834 383.57 303.997 394.763 C 290.1 405.247 271.8 411.02 252.468 411.02 C 252.467 411.02 252.467 411.02 252.465 411.02 L 252.465 480.696 C 308.17 480.696 359.056 464.323 395.754 434.594 C 435.541 402.364 456.57 357.299 456.57 304.273 L 456.57 304.273 C 456.57 304.143 456.57 304.013 456.57 303.881 C 456.57 303.846 456.57 303.814 456.57 303.778 C 456.57 303.671 456.569 303.564 456.569 303.458 C 456.569 303.432 456.569 303.404 456.569 303.378 C 456.568 303.245 456.568 303.109 456.567 302.976 C 456.567 302.96 456.567 302.949 456.567 302.933 C 456.566 302.81 456.566 302.685 456.565 302.563 C 456.565 302.543 456.565 302.521 456.565 302.502 C 456.4 284.448 453.75 266.273 448.84 248.519 L 448.858 248.538 L 448.858 248.537 C 445.908 237.863 442.142 227.342 437.603 217.092 C 427.703 194.739 414.135 173.674 397.388 155.134 C 386.202 142.75 374.007 131.899 360.935 122.677 C 351.933 116.326 342.516 110.75 332.72 105.976 C 332.668 105.95 332.613 105.924 332.56 105.897 C 332.558 105.898 332.558 105.898 332.558 105.898 C 307.545 93.734 281.262 87.421 254.404 87.132 C 254.373 87.132 254.337 87.131 254.304 87.131 C 254.23 87.13 254.154 87.129 254.08 87.129 C 254.055 87.129 254.025 87.129 253.999 87.129 C 253.919 87.129 253.839 87.129 253.759 87.128 C 253.719 87.128 253.683 87.128 253.644 87.128 C 253.576 87.128 253.505 87.127 253.435 87.127 C 253.243 87.126 253.058 87.126 252.867 87.125 C 252.733 87.122 252.599 87.122 252.465 87.122 L 252.465 87.122"/>
  <path style="fill: none; stroke: rgb(3, 3, 3); stroke-width: 32px;" d="M 212.65 237.483 C 223.306 237.483 231.951 228.887 231.951 218.28 C 231.951 207.675 223.306 199.079 212.65 199.079 C 202.005 199.079 193.361 207.675 193.361 218.28 C 193.361 228.887 202.006 237.483 212.65 237.483 M 261.057 87.122 L 261.057 293.08 C 261.056 293.08 261.056 293.08 261.055 293.08 C 241.723 293.08 223.422 298.854 209.526 309.338 C 194.689 320.532 186.517 335.701 186.517 352.051 C 186.517 368.4 194.689 383.57 209.526 394.763 C 223.422 405.247 241.723 411.02 261.055 411.02 C 261.056 411.02 261.056 411.02 261.057 411.02 L 261.057 480.696 C 205.353 480.696 154.467 464.323 117.768 434.594 C 77.981 402.364 56.952 357.299 56.952 304.273 L 56.952 304.273 C 56.952 304.143 56.952 304.013 56.952 303.881 C 56.952 303.846 56.952 303.814 56.952 303.778 C 56.952 303.671 56.953 303.564 56.953 303.458 C 56.953 303.432 56.953 303.404 56.953 303.378 C 56.954 303.245 56.954 303.109 56.955 302.976 C 56.955 302.96 56.955 302.949 56.955 302.933 C 56.956 302.81 56.957 302.685 56.958 302.563 C 56.958 302.543 56.958 302.521 56.958 302.502 C 57.122 284.448 59.773 266.273 64.682 248.519 L 64.665 248.538 L 64.665 248.537 C 67.615 237.863 71.381 227.342 75.92 217.092 C 85.819 194.739 99.387 173.674 116.135 155.134 C 127.32 142.75 139.516 131.899 152.587 122.677 C 161.589 116.326 171.006 110.75 180.802 105.976 C 180.855 105.95 180.91 105.924 180.962 105.897 C 180.964 105.898 180.964 105.898 180.964 105.898 C 205.978 93.734 232.26 87.421 259.118 87.132 C 259.149 87.132 259.185 87.131 259.218 87.131 C 259.292 87.13 259.368 87.129 259.442 87.129 C 259.467 87.129 259.498 87.129 259.523 87.129 C 259.604 87.129 259.684 87.129 259.763 87.128 C 259.803 87.128 259.839 87.128 259.878 87.128 C 259.947 87.128 260.018 87.127 260.088 87.127 C 260.279 87.126 260.465 87.126 260.655 87.125 C 260.789 87.122 260.924 87.122 261.057 87.122 L 261.057 87.122"/>
  <path style="fill: none; stroke: rgb(3, 3, 3); stroke-width: 32px;" d="M 66.05 253.879 C 12.675 198.321 25.052 97.104 25.604 92.822 L 27.019 81.872 L 37.951 80.195 C 41.75 79.61 131.702 66.445 191.271 113.354 L 66.05 253.879"/>
  <path style="fill: none; stroke: rgb(3, 3, 3); stroke-width: 32px;" d="M 447.989 252.941 C 501.365 197.384 488.987 96.166 488.436 91.884 L 487.021 80.934 L 476.089 79.258 C 472.29 78.673 382.338 65.508 322.768 112.417 L 447.989 252.941"/>
  <path style="fill: rgb(211, 123, 147);" d="M 66.959 249.35 C 15.869 196.076 27.717 99.017 28.245 94.91 L 29.6 84.41 L 40.063 82.801 C 43.7 82.241 129.801 69.616 186.82 114.599 L 66.959 249.35 Z"/>
  <path style="fill: rgb(237, 202, 212);" d="M 87.272 229.869 C 54.445 195.64 53.947 134.478 55.279 109.542 C 78.338 107.947 132.758 107.799 169.387 136.695 L 87.272 229.869 Z"/>
  <path style="fill: rgb(195, 115, 137);" d="M 446.178 249.35 C 497.268 196.075 485.42 99.017 484.892 94.91 L 483.538 84.41 L 473.074 82.802 C 469.438 82.241 383.337 69.617 326.318 114.599 L 446.178 249.35"/>
  <path style="fill: rgb(215, 184, 195);" d="M 425.866 229.869 C 458.693 195.64 459.191 134.477 457.858 109.542 C 434.799 107.946 380.379 107.798 343.75 136.693 L 425.866 229.869"/>
  <path style="fill: rgb(211, 123, 147);" d="M 256.568 477.104 C 202.833 477.104 153.746 461.029 118.344 431.841 C 79.965 400.196 59.679 355.951 59.679 303.89 C 59.679 251.713 80.488 198.343 116.772 157.46 C 134.993 136.93 155.981 120.692 179.153 109.196 C 203.908 96.913 229.953 90.686 256.567 90.686 C 283.18 90.686 309.226 96.914 333.981 109.196 C 357.153 120.691 378.14 136.93 396.361 157.461 C 432.645 198.343 453.454 251.714 453.454 303.889 C 453.454 355.949 433.168 400.194 394.789 431.84 C 359.391 461.028 310.302 477.104 256.568 477.104"/>
  <g style="" transform="matrix(0.897955, 0, 0, 0.897955, 26.692005, 49.052563)">
    <path style="" d="M183.282,189.771c0-11.511,9.227-20.832,20.565-20.832c11.353,0,20.579,9.321,20.579,20.832 c0,11.509-9.225,20.839-20.579,20.839C192.509,210.61,183.282,201.28,183.282,189.771z"/>
    <path style="" d="M328.723,189.771c0-11.595-9.287-20.994-20.721-20.994c-11.448,0-20.735,9.399-20.735,20.994 c0,11.596,9.287,20.996,20.735,20.996C319.436,210.767,328.723,201.368,328.723,189.771"/>
  </g>
  <path style="fill: rgb(237, 202, 212);" d="M 256.571 408.694 C 237.922 408.694 220.27 403.026 206.865 392.733 C 192.552 381.743 184.669 366.85 184.669 350.798 C 184.669 334.745 192.551 319.852 206.864 308.862 C 220.27 298.568 237.922 292.899 256.571 292.899 C 275.22 292.899 292.873 298.567 306.278 308.862 C 320.59 319.852 328.473 334.745 328.473 350.798 C 328.473 366.85 320.59 381.743 306.278 392.733 C 292.872 403.026 275.22 408.694 256.571 408.694"/>
  <g style="" transform="matrix(0.897955, 0, 0, 0.897955, 26.692005, 49.052563)">
    <path style="" d="M218.567,336.035c0-6.911,5.539-12.506,12.347-12.506c6.816,0,12.354,5.596,12.354,12.506 c0,6.909-5.538,12.511-12.354,12.511C224.107,348.544,218.567,342.944,218.567,336.035z"/>
    <path style="" d="M293.437,336.035c0-6.962-5.576-12.604-12.44-12.604c-6.872,0-12.448,5.643-12.448,12.604 s5.576,12.603,12.448,12.603C287.861,348.638,293.437,342.996,293.437,336.035"/>
  </g>
  <path style="fill: rgb(189, 189, 191);" d="M 453.455 303.403 C 453.455 303.439 453.455 303.469 453.455 303.504 C 453.455 303.472 453.455 303.436 453.455 303.403 M 453.454 303.01 C 453.454 303.036 453.454 303.063 453.454 303.089 C 453.454 303.061 453.454 303.036 453.454 303.01 M 453.451 302.573 C 453.451 302.589 453.451 302.599 453.451 302.615 C 453.451 302.601 453.451 302.587 453.451 302.573 M 453.449 302.149 C 453.449 302.168 453.449 302.19 453.449 302.209 C 453.449 302.189 453.449 302.17 453.449 302.149 M 446.014 249.165 L 446.014 249.165 L 446.179 249.35 L 446.014 249.165 M 258.34 90.694 C 258.371 90.694 258.406 90.694 258.437 90.695 C 258.404 90.695 258.372 90.695 258.34 90.694 M 258.047 90.692 C 258.071 90.692 258.1 90.692 258.125 90.692 C 258.098 90.693 258.073 90.692 258.047 90.692 M 257.703 90.689 C 257.74 90.689 257.776 90.689 257.813 90.689 C 257.776 90.69 257.74 90.689 257.703 90.689 M 256.955 90.686 C 257.139 90.686 257.318 90.687 257.502 90.688 C 257.318 90.687 257.138 90.686 256.955 90.686 M 472.953 82.783 C 473.001 82.791 473.041 82.797 473.075 82.802 L 483.539 84.41 L 484.893 94.91 C 485.066 96.254 486.45 107.544 486.446 123.998 C 486.45 107.545 485.066 96.254 484.893 94.91 L 483.539 84.41 L 473.075 82.802 C 473.041 82.798 473.001 82.791 472.953 82.783"/>
  <path style="fill: rgb(204, 118, 141);" d="M 303.264 238.312 C 292.984 238.312 284.645 229.872 284.645 219.458 C 284.645 209.047 292.984 200.607 303.264 200.607 C 313.532 200.607 321.871 209.047 321.871 219.458 C 321.871 229.872 313.531 238.312 303.264 238.312 M 256.568 90.685 L 256.568 292.898 C 256.569 292.898 256.569 292.898 256.57 292.898 C 275.219 292.898 292.872 298.566 306.278 308.861 C 320.589 319.851 328.472 334.744 328.472 350.797 C 328.472 366.849 320.589 381.742 306.278 392.732 C 292.872 403.026 275.219 408.693 256.57 408.693 C 256.569 408.693 256.569 408.693 256.568 408.693 L 256.568 477.102 C 310.302 477.102 359.389 461.027 394.79 431.839 C 433.169 400.194 453.455 355.949 453.455 303.888 L 453.455 303.888 C 453.455 303.759 453.455 303.632 453.455 303.503 C 453.455 303.467 453.455 303.437 453.455 303.402 C 453.455 303.297 453.454 303.192 453.454 303.087 C 453.454 303.062 453.454 303.034 453.454 303.009 C 453.453 302.878 453.453 302.745 453.452 302.614 C 453.452 302.598 453.452 302.587 453.452 302.572 C 453.451 302.451 453.451 302.329 453.45 302.209 C 453.45 302.189 453.45 302.167 453.45 302.148 C 453.292 284.423 450.734 266.579 445.999 249.147 L 446.015 249.165 L 446.015 249.165 C 443.17 238.685 439.537 228.355 435.158 218.292 C 425.609 196.345 412.521 175.663 396.366 157.461 C 385.575 145.302 373.812 134.647 361.202 125.593 C 352.519 119.359 343.435 113.884 333.986 109.196 C 333.935 109.171 333.882 109.145 333.83 109.119 C 333.829 109.119 333.829 109.119 333.829 109.119 C 309.7 97.177 284.347 90.979 258.439 90.695 C 258.408 90.695 258.373 90.694 258.342 90.694 C 258.271 90.693 258.197 90.693 258.126 90.693 C 258.102 90.693 258.073 90.693 258.048 90.693 C 257.97 90.692 257.893 90.692 257.816 90.691 C 257.778 90.691 257.743 90.691 257.705 90.691 C 257.639 90.691 257.571 90.69 257.503 90.69 C 257.319 90.689 257.14 90.689 256.956 90.688 C 256.827 90.685 256.697 90.685 256.568 90.685 L 256.568 90.685"/>
  <g style="" transform="matrix(0.897955, 0, 0, 0.897955, 26.692005, 49.052563)"/>
  <g style="" transform="matrix(0.897955, 0, 0, 0.897955, 26.692005, 49.052563)"/>
  <g style="" transform="matrix(0.897955, 0, 0, 0.897955, 26.692005, 49.052563)"/>
  <g style="" transform="matrix(0.897955, 0, 0, 0.897955, 26.692005, 49.052563)"/>
  <g style="" transform="matrix(0.897955, 0, 0, 0.897955, 26.692005, 49.052563)"/>
  <g style="" transform="matrix(0.897955, 0, 0, 0.897955, 26.692005, 49.052563)"/>
  <g style="" transform="matrix(0.897955, 0, 0, 0.897955, 26.692005, 49.052563)"/>
  <g style="" transform="matrix(0.897955, 0, 0, 0.897955, 26.692005, 49.052563)"/>
  <g style="" transform="matrix(0.897955, 0, 0, 0.897955, 26.692005, 49.052563)"/>
  <g style="" transform="matrix(0.897955, 0, 0, 0.897955, 26.692005, 49.052563)"/>
  <g style="" transform="matrix(0.897955, 0, 0, 0.897955, 26.692005, 49.052563)"/>
  <g style="" transform="matrix(0.897955, 0, 0, 0.897955, 26.692005, 49.052563)"/>
  <g style="" transform="matrix(0.897955, 0, 0, 0.897955, 26.692005, 49.052563)"/>
  <g style="" transform="matrix(0.897955, 0, 0, 0.897955, 26.692005, 49.052563)"/>
  <g style="" transform="matrix(0.897955, 0, 0, 0.897955, 26.692005, 49.052563)"/>
  <path style="fill: rgb(216, 216, 216); stroke: rgb(0, 0, 0);" d="M 303.703 76.668"/>
</svg>