<svg class="icon" height="512" viewBox="0 0 1024 1024" version="1" xmlns="http://www.w3.org/2000/svg">
  <path d="M384 630a32 32 0 1 0 0 64 32 32 0 0 0 0-64zm256 0a32 32 0 1 0 0 64 32 32 0 0 0 0-64z" fill="#333"/>
  <path d="M512 1024c-229 0-416-143-416-318s187-319 416-319 416 143 416 319-187 318-416 318zm0-573c-194 0-352 114-352 255s158 254 352 254 352-114 352-254-158-255-352-255z" fill="#333"/>
  <path d="M263 511c-12 0-23-6-29-18-25-54-44-115-57-180a954 954 0 0 1-16-132v-6c-2-42-4-90 28-131l9-10c32-34 83-44 121-24 28 15 48 44 55 80 7 30 4 62 1 90v3c-9 94-9 178 0 258a32 32 0 0 1-64 7c-9-84-9-173 0-271v-3c3-25 5-50 1-72-4-16-12-30-22-35-13-7-34-2-46 11l-5 5c-17 23-16 54-14 89v5c2 42 7 84 15 124 12 60 29 115 52 165a32 32 0 0 1-29 45zm498 1a32 32 0 0 1-29-46c23-49 40-105 52-165 8-40 13-82 15-124v-5c2-35 3-66-14-89l-5-5c-12-13-33-18-46-11-10 5-19 19-22 35-4 22-2 47 1 72v3c9 97 9 185 0 268a32 32 0 1 1-63-7c8-79 8-162-1-255v-3c-3-28-6-59 0-90 8-36 28-65 56-80a106 106 0 0 1 130 34c32 41 30 89 28 131v6a952 952 0 0 1-16 132c-13 65-32 126-57 180a32 32 0 0 1-29 19zM512 832a32 32 0 0 1-32-32v-32a32 32 0 1 1 64 0v32a32 32 0 0 1-32 32z" fill="#333"/>
  <path d="M464 861a78 78 0 0 1-55-23 16 16 0 1 1 22-23c18 18 48 18 66 0a16 16 0 1 1 22 23 78 78 0 0 1-55 23z" fill="#333"/>
  <path d="M464 861a78 78 0 0 1-55-23 16 16 0 1 1 22-23c18 18 48 18 66 0a16 16 0 1 1 22 23 78 78 0 0 1-55 23z" fill="#333"/>
  <path d="M560 861a78 78 0 0 1-55-23 16 16 0 1 1 22-23c18 18 48 18 66 0a16 16 0 1 1 22 23 78 78 0 0 1-55 23z" fill="#333"/>
  <path d="M560 861a78 78 0 0 1-55-23 16 16 0 1 1 22-23c18 18 48 18 66 0a16 16 0 1 1 22 23 78 78 0 0 1-55 23z" fill="#333"/>
</svg>
