<?xml version="1.0" encoding="iso-8859-1"?>
<!-- Generator: Adobe Illustrator 19.0.0, SVG Export Plug-In . SVG Version: 6.00 Build 0)  -->
<svg version="1.1" id="Layer_1" xmlns="http://www.w3.org/2000/svg" xmlns:xlink="http://www.w3.org/1999/xlink" x="0px" y="0px"
	 viewBox="0 0 512 512" style="enable-background:new 0 0 512 512;" xml:space="preserve">
<path style="fill:#FFDEB7;" d="M312,468c0,0-12.25,12-56,12c-46.25,0-56-12-56-12s-0.86,0.058,0,10c1.333,15.416,25.072,30,56,30
	h0.129c30.786,0,54.416-14.584,55.743-30C312.728,468.058,312,468,312,468z"/>
<path style="fill:#FFEBD2;" d="M482.004,359.519c-2.551-36.279-16.286-108.542-54.417-171.057
	c-78.171-128.156-267.06-128.156-345.231,0C44.224,250.978,30.489,323.24,27.938,359.519c-0.395,5.621,5.128,9.827,10.537,8.045
	l1.985-0.653c5.192-1.71,10.553,2.108,10.553,7.516v28.462c0,6.328,7.138,10.102,12.466,6.593L85.615,394.9
	c5.329-3.51,12.466,0.264,12.466,6.592l0,0c0,4.448,3.677,8.01,8.179,7.92c11.773-0.235,33.81,1.333,49.535,14.462
	c8.068,6.736,17.993,10.67,28.245,11.217C184.858,472.24,216.037,480.494,256,480c40.75-0.5,72-7.961,72-46.4
	c0-0.291-0.011-0.574-0.013-0.864c11.11-2.281,21.808-6.614,31.545-12.78c15.055-9.534,33.67-10.754,44.151-10.544
	c4.501,0.09,8.179-3.472,8.179-7.92l0,0c0-6.328,7.137-10.103,12.466-6.592l22.135,14.582c5.329,3.509,12.466-0.265,12.466-6.593
	v-28.462c0-5.408,5.362-9.227,10.554-7.516l1.984,0.653C476.877,369.346,482.399,365.14,482.004,359.519z"/>
<g>
	<path style="fill:#C3B9B1;" d="M487.967,377.22c0.003,0.174,0.006,0.346,0.01,0.517
		C487.974,377.566,487.971,377.395,487.967,377.22z"/>
	<polygon style="fill:#C3B9B1;" points="272,436 279.04,426.4 272,426.4 	"/>
	<path style="fill:#C3B9B1;" d="M357.104,239.927c-7.5-2.774-15.413-4.074-23.422-3.914c-12.638,0.252-22.978,10.263-24.559,22.805
		L289.86,411.646l53.307-72.691c10.446-14.244,30.333-17.218,44.689-6.927C410.001,347.899,440.977,377.348,464,428v-56l24,8
		C445.204,282.181,383.72,249.772,357.104,239.927z"/>
	<path style="fill:#C3B9B1;" d="M487.755,371.613c0.007,0.125,0.013,0.247,0.019,0.37
		C487.768,371.86,487.762,371.738,487.755,371.613z"/>
	<path style="fill:#C3B9B1;" d="M487.89,374.578c0.002,0.061,0.005,0.123,0.007,0.183
		C487.896,374.701,487.893,374.639,487.89,374.578z"/>
	<path style="fill:#C3B9B1;" d="M487.57,368.544c0.001,0.028,0.004,0.058,0.006,0.086
		C487.574,368.602,487.572,368.572,487.57,368.544z"/>
	<path style="fill:#C3B9B1;" d="M24.424,368.631c0.002-0.03,0.004-0.06,0.006-0.09C24.428,368.571,24.426,368.602,24.424,368.631z"
		/>
	<path style="fill:#C3B9B1;" d="M24.023,377.737c0.003-0.171,0.006-0.343,0.01-0.518C24.029,377.395,24.026,377.566,24.023,377.737z
		"/>
	<path style="fill:#C3B9B1;" d="M24.103,374.761c0.002-0.06,0.005-0.123,0.008-0.184C24.108,374.638,24.104,374.701,24.103,374.761z
		"/>
	<path style="fill:#C3B9B1;" d="M178.317,236.013c-8.009-0.16-15.921,1.14-23.422,3.914C128.28,249.772,66.796,282.181,24,380l24-8
		v56c23.024-50.652,53.999-80.101,76.144-95.973c14.357-10.291,34.244-7.317,44.689,6.927l53.307,72.691l-19.264-152.828
		C201.295,246.276,190.955,236.266,178.317,236.013z"/>
	<path style="fill:#C3B9B1;" d="M24,380L24,380L24,380z"/>
	<path style="fill:#C3B9B1;" d="M24.227,371.984c0.006-0.124,0.012-0.247,0.019-0.372C24.238,371.738,24.232,371.86,24.227,371.984z
		"/>
	<polygon style="fill:#C3B9B1;" points="240,436 240,426.4 232.96,426.4 	"/>
</g>
<path style="fill:#878791;" d="M487.977,377.737c-0.003-0.171-0.006-0.343-0.01-0.517c-0.017-0.794-0.039-1.61-0.07-2.459
	c-0.002-0.06-0.005-0.122-0.007-0.183c-0.032-0.837-0.071-1.705-0.117-2.595c-0.006-0.124-0.012-0.246-0.019-0.37
	c-0.051-0.965-0.11-1.959-0.179-2.983c-0.002-0.029-0.004-0.058-0.006-0.086c-2.701-40.303-18.822-124.84-65.696-192.873
	c4.938-71.813,1.689-149.141-14.456-166.693C403.637,4.863,399.621,4,396.926,4c-15.946,0-59.282,48.836-87.676,83.032
	c-0.163-0.055-0.327-0.11-0.49-0.166c-34.122-11.538-71.398-11.538-105.52,0l-0.49,0.166C174.356,52.836,131.021,4,115.074,4
	c-2.695,0-6.711,0.863-10.492,4.978c-16.146,17.553-19.395,94.88-14.456,166.693C43.253,243.703,27.131,328.238,24.43,368.542
	c-0.002,0.03-0.004,0.06-0.006,0.09c-0.068,1.023-0.127,2.017-0.179,2.981c-0.007,0.125-0.013,0.248-0.019,0.372
	c-0.046,0.889-0.085,1.756-0.116,2.593c-0.002,0.061-0.006,0.124-0.008,0.184c-0.031,0.85-0.053,1.666-0.07,2.459
	c-0.003,0.174-0.006,0.346-0.01,0.518C24.01,378.517,24,379.278,24,380l0,0l0,0l0,0c42.796-97.819,104.28-130.228,130.896-140.073
	c7.5-2.774,15.413-4.074,23.422-3.914c12.638,0.252,22.978,10.263,24.559,22.805l19.264,152.828L224,426.4h8.96H240h32h7.04H288
	l1.86-14.754l19.264-152.828c1.581-12.542,11.921-22.552,24.559-22.805c8.009-0.16,15.921,1.14,23.422,3.914
	C383.72,249.772,445.204,282.181,488,380C488,379.278,487.99,378.517,487.977,377.737z"/>
<path style="fill:#464655;" d="M288,422.4c0,15.464-14.327,33.6-32,33.6s-32-18.136-32-33.6c0-15.464,14.327-22.4,32-22.4
	S288,406.936,288,422.4z"/>
<g>
	<path style="fill:#C3B9B1;" d="M120,8c-20,0-46,66-24,160l41-41c33.564-26.372,40.186-70.318,9.936-100.434
		C136.272,15.95,126.646,8,120,8z"/>
	<path style="fill:#C3B9B1;" d="M392,8c-9.132,0-23.895,15.013-39.241,31.327C329.804,63.733,339.654,97.3,366,118l50,50
		C438,74,412,8,392,8z"/>
</g>
<path d="M336,248c-8.822,0-16,7.178-16,16c0,8.822,7.178,16,16,16c8.822,0,16-7.178,16-16S344.822,248,336,248z"/>
<path d="M176,248c-8.822,0-16,7.178-16,16c0,8.822,7.178,16,16,16s16-7.178,16-16S184.822,248,176,248z"/>
<path d="M472.358,261.174c-9.47-25.922-24.826-60.424-48.083-93.526c16.956-74.558,5.034-133.359-13.417-156.626
	C403.635,1.912,396.616,0,392,0c-12.699,0-26.834,14.391-48.844,37.87c-8.295,8.85-16.874,18-24.379,24.641
	C308.568,71.542,304.676,72,304,72c-0.913,0-1.786,0.16-2.603,0.442c-14.583-4.6-29.562-7.42-44.874-8.425
	c-0.033-0.002-0.066,0-0.099-0.001c-0.141-0.007-0.284-0.007-0.426-0.006c-0.14,0-0.279-0.001-0.417,0.006
	c-0.035,0.002-0.069-0.001-0.104,0.001c-15.313,1.004-30.291,3.825-44.874,8.425C209.786,72.16,208.913,72,208,72
	c-0.676,0-4.568-0.458-14.777-9.489c-7.505-6.64-16.083-15.791-24.379-24.641C146.834,14.391,132.699,0,120,0
	c-4.616,0-11.635,1.912-18.859,11.022C82.691,34.29,70.769,93.091,87.725,167.648c-23.257,33.102-38.612,67.604-48.083,93.526
	C24.838,301.694,16,344.62,16,376c0,2.571,1.236,4.986,3.322,6.491c2.087,1.503,4.769,1.912,7.208,1.099L40,379.1V424
	c0,2.951,1.624,5.661,4.225,7.054c2.601,1.392,5.758,1.239,8.212-0.397L88,406.948V416c0,2.421,1.1,4.711,2.985,6.23
	c1.885,1.518,4.36,2.102,6.726,1.584c0.642-0.14,64.335-13.616,78.974,19.426c0.002,0.005,0.006,0.01,0.008,0.016
	c1.724,11.865,6.771,21.422,15.084,28.571c-0.311,2.317-0.145,5.21,0.269,9.033C193.966,498.613,221.46,512,256,512h0.129
	c34.402,0,61.786-13.389,63.697-31.145c0.42-3.904,0.603-6.746,0.346-8.984c8.344-7.152,13.408-16.725,15.135-28.615
	c0.002-0.006,0.005-0.011,0.008-0.016c14.638-33.042,78.331-19.565,78.968-19.427c2.364,0.52,4.841-0.061,6.73-1.579
	c1.889-1.518,2.987-3.811,2.987-6.234v-9.052l35.563,23.708c2.456,1.637,5.612,1.789,8.212,0.397
	c2.601-1.393,4.225-4.103,4.225-7.054v-44.9l13.47,4.49c2.439,0.813,5.121,0.404,7.208-1.099c2.086-1.504,3.322-3.919,3.322-6.491
	C496,344.62,487.162,301.694,472.358,261.174z M337.35,66.955c-0.905,5.596-1.135,11.14-0.644,16.532
	c0.133,1.462,0.334,2.898,0.574,4.316c-4.967-2.715-9.991-5.207-15.071-7.469C326.826,76.912,331.817,72.413,337.35,66.955z
	 M189.791,80.335c-5.08,2.262-10.104,4.754-15.071,7.469c0.24-1.418,0.441-2.854,0.574-4.316c0.491-5.393,0.262-10.937-0.644-16.532
	C180.183,72.413,185.174,76.912,189.791,80.335z M256.129,496H256c-25.917,0-42.522-8.361-46.897-14.317
	C220.891,485.974,236.069,488,256,488c19.841,0,34.969-2.01,46.735-6.262C298.325,487.689,281.832,496,256.129,496z M256,448
	c-12.925,0-24-14.076-24-25.6c0-12.997,16.784-14.4,24-14.4c7.216,0,24,1.403,24,14.4C280,433.924,268.925,448,256,448z
	 M466.53,360.411c-2.438-0.814-5.121-0.404-7.208,1.099c-2.086,1.504-3.322,3.919-3.322,6.49v41.052l-35.563-23.708
	c-2.455-1.636-5.611-1.789-8.212-0.397S408,389.05,408,392v14.531c-16.7-2.278-50.926-4.384-72.658,11.865
	c-2.172-25.913-9.532-47.717-16.708-68.897c-6.118-18.057-11.897-35.114-14.715-54.641c-0.631-4.374-4.694-7.407-9.061-6.776
	c-4.373,0.631-7.407,4.688-6.775,9.061c3.028,20.983,9.316,39.543,15.397,57.491C311.976,379.708,320,403.393,320,433.6
	c0,25.615-16.357,36.984-56,38.274v-8.832c18.531-4.46,32-23.753,32-40.642c0-18.467-15.701-30.4-40-30.4s-40,11.933-40,30.4
	c0,16.889,13.469,36.182,32,40.642v8.832c-39.643-1.29-56-12.659-56-38.274c0-31.603,8.252-56.323,16.989-82.494
	c5.63-16.866,11.453-34.306,14.889-53.711c0.771-4.351-2.132-8.502-6.482-9.272c-4.35-0.77-8.501,2.132-9.272,6.482
	c-3.231,18.245-8.863,35.118-14.311,51.435c-7.416,22.214-15.022,45.084-17.186,72.333c-21.734-16.225-55.935-14.119-72.626-11.842
	V392c0-2.95-1.624-5.661-4.225-7.054c-2.601-1.392-5.758-1.239-8.212,0.397L56,409.052V368c0-2.571-1.236-4.986-3.322-6.49
	c-2.086-1.503-4.767-1.912-7.208-1.099l-13.093,4.364c3.597-56.329,32.989-153.947,93.479-218.981
	c3.009-3.235,2.826-8.297-0.409-11.306c-3.235-3.008-8.297-2.826-11.307,0.41c-4.766,5.124-9.294,10.378-13.601,15.718
	c-6.259-34.075-5.471-60.858-3.466-78.129c2.603-22.433,8.81-41.693,16.604-51.522C116.785,17.046,119.114,16,120,16
	c0.363,0,3.829,0.252,13.642,8.982c1.188,1.056,2.411,2.188,3.656,3.37c0.23,0.354,0.482,0.698,0.775,1.021
	c15.063,16.622,22.822,35.817,21.288,52.664c-0.914,10.031-5.139,18.195-12.219,23.61c-0.091,0.069-0.173,0.147-0.26,0.22
	c-0.116,0.096-0.235,0.19-0.344,0.292c-0.087,0.082-0.166,0.17-0.249,0.254c-0.105,0.107-0.213,0.211-0.311,0.323
	c-0.078,0.089-0.146,0.183-0.22,0.274c-0.092,0.115-0.187,0.228-0.271,0.346c-0.069,0.097-0.129,0.199-0.194,0.299
	c-0.077,0.119-0.158,0.236-0.229,0.359c-0.06,0.104-0.11,0.213-0.165,0.319c-0.064,0.124-0.131,0.246-0.188,0.372
	c-0.05,0.11-0.089,0.224-0.134,0.336c-0.051,0.126-0.105,0.252-0.149,0.381c-0.039,0.115-0.067,0.232-0.102,0.349
	c-0.037,0.13-0.079,0.259-0.11,0.391c-0.027,0.118-0.045,0.237-0.067,0.356c-0.025,0.133-0.055,0.265-0.073,0.398
	c-0.017,0.12-0.023,0.24-0.034,0.361c-0.012,0.134-0.029,0.269-0.034,0.404c-0.005,0.121,0,0.241,0.001,0.362
	c0.001,0.135-0.003,0.271,0.004,0.406c0.007,0.122,0.024,0.244,0.037,0.366c0.014,0.134,0.022,0.269,0.043,0.401
	c0.019,0.125,0.049,0.249,0.074,0.373c0.026,0.129,0.047,0.258,0.08,0.386c0.032,0.126,0.076,0.25,0.114,0.376
	c0.038,0.124,0.071,0.249,0.116,0.372c0.046,0.126,0.103,0.25,0.156,0.375c0.049,0.118,0.094,0.237,0.15,0.354
	c0.06,0.125,0.131,0.246,0.198,0.368c0.062,0.113,0.118,0.227,0.185,0.338c0.073,0.12,0.158,0.234,0.238,0.352
	c0.069,0.101,0.131,0.204,0.205,0.302c0.005,0.007,0.012,0.013,0.018,0.021c0.007,0.009,0.012,0.019,0.02,0.028
	c0.1,0.131,0.212,0.247,0.319,0.37c0.097,0.112,0.188,0.231,0.291,0.336c0.119,0.123,0.247,0.23,0.372,0.344
	c0.107,0.099,0.21,0.203,0.322,0.294c0.133,0.108,0.274,0.201,0.412,0.299c0.114,0.081,0.223,0.169,0.34,0.244
	c0.149,0.095,0.306,0.174,0.46,0.259c0.114,0.062,0.224,0.132,0.34,0.188c0.167,0.081,0.34,0.145,0.511,0.214
	c0.11,0.045,0.218,0.098,0.33,0.137c0.184,0.065,0.372,0.111,0.559,0.163c0.104,0.029,0.206,0.065,0.312,0.089
	c0.208,0.048,0.419,0.077,0.63,0.108c0.088,0.013,0.174,0.035,0.262,0.044c0.3,0.034,0.602,0.051,0.904,0.051
	c0.421,0,0.843-0.034,1.262-0.101c0.138-0.022,0.272-0.07,0.41-0.099c0.278-0.06,0.559-0.113,0.832-0.204
	c0.163-0.054,0.318-0.137,0.479-0.202c0.241-0.097,0.484-0.185,0.718-0.307c0.162-0.085,0.312-0.2,0.47-0.297
	c0.212-0.13,0.431-0.247,0.634-0.4C187.442,95.34,220.812,82.436,256,80.022c35.188,2.413,68.558,15.318,99.189,38.37
	c0.204,0.154,0.423,0.27,0.636,0.402c0.157,0.096,0.307,0.21,0.468,0.295c0.235,0.123,0.479,0.21,0.722,0.308
	c0.159,0.065,0.313,0.147,0.475,0.2c0.277,0.092,0.561,0.146,0.844,0.207c0.133,0.028,0.264,0.075,0.398,0.096
	c0.418,0.067,0.841,0.101,1.262,0.101c0.302,0,0.604-0.017,0.904-0.051c0.083-0.009,0.164-0.03,0.247-0.042
	c0.216-0.031,0.432-0.062,0.645-0.11c0.098-0.022,0.193-0.058,0.291-0.083c0.194-0.053,0.39-0.102,0.58-0.169
	c0.107-0.038,0.21-0.089,0.315-0.131c0.176-0.07,0.354-0.136,0.524-0.219c0.112-0.055,0.218-0.122,0.328-0.182
	c0.158-0.086,0.319-0.168,0.472-0.266c0.112-0.072,0.217-0.157,0.327-0.234c0.143-0.102,0.288-0.197,0.425-0.309
	c0.11-0.09,0.212-0.194,0.318-0.292c0.126-0.114,0.255-0.222,0.375-0.346c0.102-0.106,0.194-0.225,0.291-0.337
	c0.106-0.123,0.219-0.238,0.319-0.37c0.007-0.009,0.012-0.019,0.02-0.028c0.005-0.008,0.012-0.014,0.018-0.021
	c0.074-0.099,0.136-0.202,0.205-0.302c0.08-0.117,0.165-0.232,0.238-0.352c0.067-0.111,0.124-0.225,0.185-0.338
	c0.067-0.123,0.139-0.244,0.198-0.368c0.056-0.117,0.101-0.236,0.15-0.354c0.053-0.125,0.11-0.249,0.156-0.375
	c0.044-0.123,0.078-0.248,0.116-0.372c0.038-0.125,0.082-0.25,0.114-0.376c0.032-0.128,0.054-0.257,0.08-0.386
	c0.025-0.125,0.055-0.248,0.074-0.373c0.021-0.133,0.029-0.268,0.043-0.401c0.013-0.122,0.03-0.244,0.037-0.366
	c0.007-0.135,0.003-0.271,0.004-0.406c0-0.121,0.006-0.242,0.001-0.362c-0.005-0.135-0.022-0.27-0.034-0.404
	c-0.011-0.121-0.017-0.241-0.034-0.361c-0.019-0.134-0.047-0.266-0.073-0.398c-0.022-0.119-0.04-0.238-0.067-0.356
	c-0.031-0.131-0.073-0.261-0.11-0.391c-0.034-0.116-0.063-0.234-0.102-0.349c-0.043-0.129-0.098-0.254-0.149-0.381
	c-0.044-0.113-0.084-0.226-0.134-0.336c-0.057-0.126-0.125-0.248-0.188-0.372c-0.055-0.106-0.104-0.215-0.165-0.319
	c-0.071-0.123-0.151-0.24-0.229-0.359c-0.065-0.1-0.125-0.202-0.194-0.299c-0.085-0.118-0.18-0.231-0.271-0.346
	c-0.073-0.091-0.142-0.186-0.22-0.274c-0.098-0.112-0.206-0.216-0.311-0.323c-0.083-0.084-0.161-0.173-0.249-0.254
	c-0.109-0.102-0.228-0.195-0.344-0.292c-0.087-0.073-0.168-0.151-0.26-0.22c-7.08-5.415-11.306-13.579-12.219-23.61
	c-1.535-16.847,6.224-36.042,21.288-52.664c0.292-0.323,0.545-0.667,0.775-1.021c1.245-1.182,2.468-2.313,3.656-3.37
	C388.171,16.252,391.637,16,392,16c0.886,0,3.215,1.046,6.322,4.963c7.794,9.829,14.001,29.089,16.604,51.522
	c2.004,17.271,2.792,44.054-3.466,78.129c-4.306-5.34-8.835-10.595-13.601-15.718c-3.009-3.235-8.071-3.419-11.307-0.41
	c-3.235,3.009-3.418,8.071-0.409,11.306c60.489,65.034,89.882,162.652,93.479,218.981L466.53,360.411z"/>
<g>
</g>
<g>
</g>
<g>
</g>
<g>
</g>
<g>
</g>
<g>
</g>
<g>
</g>
<g>
</g>
<g>
</g>
<g>
</g>
<g>
</g>
<g>
</g>
<g>
</g>
<g>
</g>
<g>
</g>
</svg>
